<?xml version="1.0" encoding="UTF-8" standalone="no"?>
<svg
   xmlns:dc="http://purl.org/dc/elements/1.1/"
   xmlns:cc="http://creativecommons.org/ns#"
   xmlns:rdf="http://www.w3.org/1999/02/22-rdf-syntax-ns#"
   xmlns:svg="http://www.w3.org/2000/svg"
   xmlns="http://www.w3.org/2000/svg"
   id="svg8091"
   version="1.1"
   viewBox="0 0 263.60327 177.79376">
  <defs
     id="defs8085" />
  <metadata
     id="metadata8088">
    <rdf:RDF>
      <cc:Work
         rdf:about="">
        <dc:format>image/svg+xml</dc:format>
        <dc:type
           rdf:resource="http://purl.org/dc/dcmitype/StillImage" />
        <dc:title></dc:title>
      </cc:Work>
    </rdf:RDF>
  </metadata>
  <g
     transform="translate(15.734443,-50.109071)"
     id="layer1">
    <g
       transform="matrix(0.35277777,0,0,-0.35277777,168.56934,219.90325)"
       id="g4863">
      <path
         id="path4865"
         style="fill:#e6d5ba;fill-opacity:1;fill-rule:nonzero;stroke:none"
         d="m 0,0 -1.194,0.733 c 2.632,3.799 6.703,7.327 12.349,9.39 8.141,8.414 2.415,53.085 -9.934,61.526 -12.321,8.413 -30.993,9.444 -50.235,18.78 -6.703,3.23 -12.592,8.332 -17.423,13.597 0,0 41.333,14.031 73.222,4.532 C 22.39,80.74 39.108,68.066 40.818,60.06 42.501,52.027 31.645,5.89 24.426,0 17.179,-5.889 0,0 0,0" />
    </g>
    <g
       transform="matrix(0.35277777,0,0,-0.35277777,182.96905,198.71539)"
       id="g4867">
      <path
         id="path4869"
         style="fill:#bdaf99;fill-opacity:1;fill-rule:nonzero;stroke:none"
         d="m 0,0 c -1.71,8.006 -18.428,20.68 -34.033,48.498 -31.889,9.499 -73.222,-4.532 -73.222,-4.532 -9.092,9.906 -14.493,20.436 -14.493,20.436 l 50.561,41.523 c 0,0 54.469,-20.164 53.573,-27.682 -0.922,-7.517 -1.52,-24.073 1.792,-33.083 C -12.511,36.122 4.939,13.543 17.885,7.246 1.927,-36.394 -2.28,-64.077 -4.37,-67.388 c -3.012,-3.012 -9.037,-10.828 -17.45,-12.348 -6.052,-1.086 -21.386,1.221 -23.476,6.622 -1.221,3.121 -0.244,8.685 3.284,13.787 l 1.194,-0.733 c 0,0 17.179,-5.889 24.426,0 C -9.173,-54.171 1.683,-8.033 0,0" />
    </g>
    <g
       transform="matrix(0.35277777,0,0,-0.35277777,168.14817,219.64467)"
       id="g4871">
      <path
         id="path4873"
         style="fill:none;stroke:#000000;stroke-width:5.42799997;stroke-linecap:butt;stroke-linejoin:miter;stroke-miterlimit:10;stroke-dasharray:none;stroke-opacity:1"
         d="m 0,0 c -3.528,-5.102 -4.505,-10.666 -3.284,-13.787 2.09,-5.401 17.424,-7.708 23.476,-6.622 8.413,1.52 14.438,9.336 17.45,12.349 2.09,3.31 6.297,30.993 22.255,74.633 C 46.951,72.87 29.5,95.45 26.19,104.487 c -3.312,9.011 -2.714,25.566 -1.792,33.083 0.896,7.518 -53.573,27.682 -53.573,27.682 l -50.561,-41.523 c 0,0 5.401,-10.53 14.493,-20.436 4.83,-5.265 10.72,-10.367 17.423,-13.597 C -28.578,80.36 -9.906,79.329 2.415,70.916 14.764,62.475 20.49,17.804 12.348,9.39 6.703,7.327 2.632,3.799 0,0 Z" />
    </g>
    <g
       transform="matrix(0.35277777,0,0,-0.35277777,237.81971,199.15587)"
       id="g4875">
      <path
         id="path4877"
         style="fill:#bdaf99;fill-opacity:1;fill-rule:nonzero;stroke:none"
         d="m 0,0 c -2.605,1.872 -5.835,9.228 -10.557,18.455 l 0.163,0.081 c 0,0 23.041,-1.031 17.64,12.213 -3.392,8.332 -9.933,17.994 -16.881,27.357 l 5.645,5.02 C 6.025,49.693 17.179,36.476 23.53,34.359 26.244,20.572 24.887,9.716 21.712,5.428 18.536,1.113 7.246,-5.211 0,0" />
    </g>
    <g
       transform="matrix(0.35277777,0,0,-0.35277777,197.3016,126.14291)"
       id="g4879">
      <path
         id="path4881"
         style="fill:#bdaf99;fill-opacity:1;fill-rule:nonzero;stroke:none"
         d="m 0,0 c 1.628,-1.493 3.121,-2.931 4.478,-4.342 19.459,-20.111 42.338,-66.329 50.669,-83.21 8.604,-17.423 34.386,-25.565 34.386,-25.565 0,0 9.96,-15.524 21.332,-30.722 l -5.645,-5.021 c -6.975,9.363 -14.357,18.428 -19.432,25.565 -4.586,6.432 -27.465,10.178 -35.607,18.998 -8.142,8.82 -18.997,55.989 -51.239,103.13 z" />
    </g>
    <g
       transform="matrix(0.35277777,0,0,-0.35277777,173.60547,107.86563)"
       id="g4883">
      <path
         id="path4885"
         style="fill:#bdaf99;fill-opacity:1;fill-rule:nonzero;stroke:none"
         d="m 0,0 c -1.167,8.25 -0.706,27.085 -0.706,27.085 0,0 -1.546,-0.217 -4.288,-0.597 1.14,18.971 0.434,43.939 -22.417,64.375 l 1.33,2.388 C -10.367,84.241 -0.977,69.124 1.656,57.97 7.87,31.536 0.407,19.947 0,0" />
    </g>
    <g
       transform="matrix(0.35277777,0,0,-0.35277777,173.35647,98.310622)"
       id="g4887">
      <path
         id="path4889"
         style="fill:#bdaf99;fill-opacity:1;fill-rule:nonzero;stroke:none"
         d="m 0,0 c 0,0 -0.461,-18.835 0.706,-27.085 -0.027,-0.57 -0.027,-1.14 -0.027,-1.737 l -4.234,2.306 C -6.378,-21.929 -4.994,-12.43 -4.288,-0.597 -1.547,-0.217 0,0 0,0" />
    </g>
    <g
       transform="matrix(0.35277777,0,0,-0.35277777,171.84382,98.521283)"
       id="g4891">
      <path
         id="path4893"
         style="fill:#e6d5ba;fill-opacity:1;fill-rule:nonzero;stroke:none"
         d="m 0,0 c -0.706,-11.833 -2.09,-21.332 0.732,-25.918 l -20.517,11.181 c 4.316,4.777 6.921,9.743 8.549,13.326 C -6.568,-0.841 -2.687,-0.353 0,0" />
    </g>
    <g
       transform="matrix(0.35277777,0,0,-0.35277777,167.95672,93.801169)"
       id="g4895">
      <path
         id="path4897"
         style="fill:#bdaf99;fill-opacity:1;fill-rule:nonzero;stroke:none"
         d="m 0,0 c 2.578,-1.846 3.474,-6.134 1.058,-11.887 -0.326,-0.787 -0.76,-1.791 -1.275,-2.904 -3.637,-0.461 -7.762,-0.95 -12.24,-1.438 4.179,4.152 7.789,9.2 10.557,15.198 z" />
    </g>
    <g
       transform="matrix(0.35277777,0,0,-0.35277777,161.02501,101.63286)"
       id="g4899">
      <path
         id="path4901"
         style="fill:#bdaf99;fill-opacity:1;fill-rule:nonzero;stroke:none"
         d="M 0,0 C 2.551,1.737 4.967,3.718 7.192,5.971 11.67,6.459 15.795,6.948 19.432,7.409 17.803,3.827 15.198,-1.14 10.883,-5.917 Z" />
    </g>
    <g
       transform="matrix(0.35277777,0,0,-0.35277777,161.02501,101.63286)"
       id="g4903">
      <path
         id="path4905"
         style="fill:#e6d5ba;fill-opacity:1;fill-rule:nonzero;stroke:none"
         d="M 0,0 -8.061,4.396 C -2.714,4.885 2.442,5.428 7.192,5.971 4.967,3.718 2.551,1.737 0,0" />
    </g>
    <g
       transform="matrix(0.35277777,0,0,-0.35277777,158.18142,100.66893)"
       id="g4907">
      <path
         id="path4909"
         style="fill:#e6d5ba;fill-opacity:1;fill-rule:nonzero;stroke:none"
         d="m 0,0 8.061,-5.229 c -23.531,-16.175 -57.862,-9.66 -70.916,1.34 h 0.027 C -47.386,-3.889 -22.037,-2.144 0,0" />
    </g>
    <g
       transform="matrix(0.35277777,0,0,-0.35277777,70.529407,177.30745)"
       id="g4911">
      <path
         id="path4913"
         style="fill:#f5e2c6;fill-opacity:1;fill-rule:nonzero;stroke:none"
         d="m 0,0 c 19.649,8.983 49.638,20.409 92.437,31.21 83.97,21.223 152.823,3.474 161.1,1.167 l -0.054,-0.244 c -0.733,-0.488 -1.547,-1.004 -2.497,-1.574 l -0.217,0.353 C 59.191,-53.492 6.432,-34.657 0,0" />
    </g>
    <g
       transform="matrix(0.35277777,0,0,-0.35277777,163.56204,99.526541)"
       id="g4915">
      <path
         id="path4917"
         style="fill:#e6d5ba;fill-opacity:1;fill-rule:nonzero;stroke:none"
         d="m 0,0 c -4.749,-0.543 -9.906,-1.086 -15.252,-1.574 l -7.437,4.044 c 9.201,-0.543 16.854,3.636 23.531,10.475 4.396,4.505 8.928,5.238 11.615,3.284 l -1.9,-1.031 C 7.789,9.2 4.179,4.152 0,0" />
    </g>
    <g
       transform="matrix(0.35277777,0,0,-0.35277777,164.86422,103.72011)"
       id="g4919">
      <path
         id="path4921"
         style="fill:#bdaf99;fill-opacity:1;fill-rule:nonzero;stroke:none"
         d="m 0,0 c -6.839,-7.68 -17.939,-14.927 -36.096,-15.415 -20.219,-0.543 -38.239,8.115 -47.521,23.665 0.624,-0.027 1.221,-0.108 1.818,-0.162 13.055,-13.814 47.386,-18.346 70.916,-2.171 z" />
    </g>
    <g
       transform="matrix(0.35277777,0,0,-0.35277777,150.57947,95.945776)"
       id="g4923">
      <path
         id="path4925"
         style="fill:#e6d5ba;fill-opacity:1;fill-rule:nonzero;stroke:none"
         d="m 0,0 -0.136,0.082 h 0.082 C -0.054,0.054 -0.027,0.027 0,0" />
    </g>
    <g
       transform="matrix(0.35277777,0,0,-0.35277777,163.93542,75.811222)"
       id="g4927">
      <path
         id="path4929"
         style="fill:#e6d5ba;fill-opacity:1;fill-rule:nonzero;stroke:none"
         d="m 0,0 c 22.852,-20.436 23.557,-45.404 22.417,-64.375 -2.687,-0.353 -6.567,-0.841 -11.235,-1.411 0.515,1.113 0.949,2.117 1.275,2.904 2.416,5.753 1.52,10.041 -1.058,11.887 -2.687,1.954 -7.219,1.221 -11.616,-3.284 -6.676,-6.839 -14.33,-11.019 -23.53,-10.476 l -14.112,7.681 c -0.028,0.027 -0.055,0.054 -0.055,0.081 1.249,-0.136 15.334,-1.357 20.518,8.82 2.469,4.886 -0.923,12.566 -6.351,14.927 -5.428,2.388 -16.039,1.212 -17.396,-7.961 -0.706,-4.831 0.434,-10.145 3.229,-13.145 h -0.081 l 0.136,-1.402 c 2.469,-3.745 6.269,-7.228 11.181,-8.042 1.004,-0.163 1.981,-0.602 2.931,-0.629 l 7.436,-5.873 c -22.037,-2.144 -47.385,-4.054 -62.827,-4.054 h -0.028 c -0.597,0 -1.194,1.799 -1.818,1.826 -3.664,6.134 -5.998,14.185 -6.541,22.3 l 1.357,0.497 c 0,0 11.1,55.627 75.095,56.306 l 0.218,0.999 C -6.432,6.247 -2.388,4.508 1.33,2.336 Z" />
    </g>
    <g
       transform="matrix(0.35277777,0,0,-0.35277777,160.02919,73.417616)"
       id="g4931">
      <path
         id="path4933"
         style="fill:#fff0d9;fill-opacity:1;fill-rule:nonzero;stroke:none"
         d="m 0,0 c -63.995,-0.679 -75.095,-56.098 -75.095,-56.098 l -1.357,-0.081 c -0.054,0.624 -0.081,1.248 -0.108,1.9 -1.004,29.853 22.552,56.667 57.345,57.671 7.084,0.217 13.57,-0.733 19.432,-2.496 z" />
    </g>
    <g
       transform="matrix(0.35277777,0,0,-0.35277777,105.31513,102.07331)"
       id="g4935">
      <path
         id="path4937"
         style="fill:#bdaf99;fill-opacity:1;fill-rule:nonzero;stroke:none"
         d="M 0,0 C 1.9,0.272 6.425,0.706 9.425,1.221 V 1.167 c 0,-8.848 -11.705,-22.851 -12.41,-23.693 0.298,0.977 4.342,13.841 3.039,22.01 z" />
    </g>
    <g
       transform="matrix(0.35277777,0,0,-0.35277777,82.506804,96.95114)"
       id="g4939">
      <path
         id="path4941"
         style="fill:#bdaf99;fill-opacity:1;fill-rule:nonzero;stroke:none"
         d="m 0,0 c -1.113,-16.501 -17.261,-29.284 -17.261,-29.284 0,0 5.346,15.389 6.405,27.547 C -9.092,-1.33 -5.401,-0.597 0,0" />
    </g>
    <g
       transform="matrix(0.35277777,0,0,-0.35277777,73.660116,73.417616)"
       id="g4943">
      <path
         id="path4945"
         style="fill:#917d61;fill-opacity:1;fill-rule:nonzero;stroke:none"
         d="m 0,0 c -0.651,-0.869 -1.33,-1.737 -2.008,-2.551 l -0.353,0.298 c -8.82,-4.532 -23.883,-7.246 -31.672,1.791 -24.887,28.958 29.854,46.138 29.854,46.138 l -0.082,0.814 c 3.61,0.38 7.057,0.57 10.042,0.543 C 18.319,46.924 22.39,41.062 16.962,31.889 6.894,17.993 7.572,9.96 0,0" />
    </g>
    <g
       transform="matrix(0.35277777,0,0,-0.35277777,71.400654,82.398289)"
       id="g4947">
      <path
         id="path4949"
         style="fill:#615441;fill-opacity:1;fill-rule:nonzero;stroke:none"
         d="m 0,0 c -18.618,16.446 -46.707,3.908 -49.34,50.778 3.175,3.854 11.318,12.213 19.785,15.063 6.487,2.144 20.056,4.966 31.699,6.106 l 0.082,-0.814 c 0,0 -54.741,-17.18 -29.854,-46.138 7.789,-9.037 22.852,-6.323 31.672,-1.791 L 4.396,22.906 C -2.605,14.411 -10.205,8.495 -10.205,8.495 c 0,0 5.021,-2.416 10.911,-7.735 z" />
    </g>
    <g
       transform="matrix(0.35277777,0,0,-0.35277777,158.99523,166.40239)"
       id="g4951">
      <path
         id="path4953"
         style="fill:#bdaf99;fill-opacity:1;fill-rule:nonzero;stroke:none"
         d="m 0,0 c -191.578,-84.404 -244.337,-65.569 -250.769,-30.912 -2.714,14.601 2.822,32.025 9.662,45.703 l -40.248,-60.603 1.221,-0.95 c -0.814,-0.57 -1.221,-0.868 -1.221,-0.868 l -0.326,-0.597 c 14.112,-7.789 36.068,-16.23 68.636,-19.975 66.519,-7.68 185.363,50.751 213.262,67.849 z" />
    </g>
    <g
       transform="matrix(0.35277777,0,0,-0.35277777,29.503909,150.17411)"
       id="g4955">
      <path
         id="path4957"
         style="fill:#bdaf99;fill-opacity:1;fill-rule:nonzero;stroke:none"
         d="m 0,0 16.039,4.994 c 0,0 -8.82,-8.821 -10.611,-18.998 L 4.044,-14.276 C 3.067,-9.255 1.52,-4.559 -0.706,-0.38 Z" />
    </g>
    <g
       transform="matrix(0.35277777,0,0,-0.35277777,31.088234,59.372262)"
       id="g4959">
      <path
         id="path4961"
         style="fill:#e6d5ba;fill-opacity:1;fill-rule:nonzero;stroke:none"
         d="m 0,0 c 6.459,1.737 18.069,3.229 31.638,1.194 l -57.349,-5.265 c 0,0 1.543,0.027 1.543,0.054 V -3.99 C -17.168,-0.434 -7.056,1.004 0,0" />
    </g>
    <g
       transform="matrix(0.35277777,0,0,-0.35277777,173.59589,108.47845)"
       id="g4963">
      <path
         id="path4965"
         style="fill:#e6d5ba;fill-opacity:1;fill-rule:nonzero;stroke:none"
         d="m 0,0 c 0,0.597 0,1.167 0.027,1.737 0.272,-1.9 0.624,-3.23 1.086,-3.664 2.334,-2.117 44.563,-28.279 66.084,-48.146 l -1.058,-1.167 c 32.242,-47.141 43.098,-94.309 51.239,-103.13 8.142,-8.82 31.021,-12.565 35.608,-18.997 5.074,-7.138 12.456,-16.202 19.431,-25.566 6.948,-9.363 13.489,-19.025 16.881,-27.356 5.401,-13.244 -17.641,-12.213 -17.641,-12.213 l -0.162,-0.081 c -8.332,16.337 -21.305,38.565 -43.722,46.679 -35.065,12.647 -108.097,-1.818 -166.447,28.931 l 0.054,0.244 c -8.277,2.307 -77.13,20.057 -161.1,-1.167 -42.799,-10.801 -72.788,-22.227 -92.437,-31.21 -2.714,14.601 2.823,32.024 9.662,45.703 l -40.248,-60.603 1.221,-0.95 c -0.814,-0.57 -1.221,-0.868 -1.221,-0.868 l -0.326,-0.597 c -15.659,8.712 -21.603,16.664 -21.603,16.664 -5.563,-1.384 -16.039,-10.612 -27.791,-22.418 l -0.027,0.027 -92.274,-31.21 -0.109,0.109 c 16.582,16.473 39.841,36.746 44.889,43.314 11.209,14.574 20.572,48.091 15.578,73.467 l 1.384,0.271 c 1.792,10.178 10.612,18.998 10.612,18.998 l -16.04,-4.994 -0.706,-0.38 c -0.135,0.272 -0.271,0.57 -0.434,0.842 -13.787,1.628 -21.494,14.492 -25.402,24.398 l 0.081,0.027 c 34.088,10.096 35.58,26.081 42.175,40.004 20.165,25.267 29.718,60.141 29.284,73.521 l -1.466,0.027 c 0.109,6.432 -2.171,14.954 -10.096,20.083 -14.628,9.499 -36.123,0 -40.329,0.597 -4.207,0.597 -16.555,18.672 -36.72,22.879 -20.165,4.207 -40.763,-2.415 -40.763,-2.415 -1.466,5.78 -4.343,9.308 -1.466,17.993 2.714,8.142 6.459,6.432 10.53,14.574 6.351,10.584 15.171,19.622 24.86,26.787 l 0.244,-0.326 c 0,0 20.355,11.209 28.497,-0.326 0,0 44.78,22.716 90.238,4.397 l 0.516,0.57 c 0.136,-0.109 0.244,-0.245 0.38,-0.353 2.632,-46.87 30.722,-34.332 49.34,-50.778 l 0.706,0.76 c 8.738,-7.87 19.431,-22.037 18.699,-44.048 0,0 0.407,0.109 1.221,0.299 -1.059,-12.158 -6.405,-27.547 -6.405,-27.547 0,0 16.148,12.783 17.261,29.284 7.056,0.76 17.016,1.276 29.419,0.434 16.989,-1.167 30.668,-7.002 34.494,-15.143 0,0 0.543,0.081 1.547,0.189 l 0.054,-0.515 c 1.303,-8.169 -3.547,-21.033 -3.846,-22.01 0.706,0.841 12.41,14.845 12.41,23.692 v 0.055 c 20,1.845 50.228,4.641 74.952,2.361 9.282,-15.551 27.706,-24.209 47.925,-23.666 18.156,0.489 29.458,7.735 36.297,15.415 L -4.335,2.307 Z" />
    </g>
    <g
       transform="matrix(0.35277777,0,0,-0.35277777,8.0384747,134.69266)"
       id="g4967">
      <path
         id="path4969"
         style="fill:#4d4233;fill-opacity:1;fill-rule:nonzero;stroke:none"
         d="m 0,0 c 1.846,0.461 3.637,0.977 5.428,1.547 0.95,0.271 1.9,0.597 2.822,0.923 0.163,0.027 0.299,0.081 0.462,0.163 35.091,12.104 59.055,40.112 66.926,65.813 l 1.248,-0.38 c 0,0 -7.68,-58.784 -54.034,-73.955 L 22.824,-7.463 C 15.144,-7.301 4.125,-5.943 0,0" />
    </g>
    <g
       transform="matrix(0.35277777,0,0,-0.35277777,42.199358,185.44566)"
       id="g4971">
      <path
         id="path4973"
         style="fill:#bdaf99;fill-opacity:1;fill-rule:nonzero;stroke:none"
         d="m 0,0 c -22.689,-22.743 -50.073,-55.066 -55.663,-59.001 -13.57,-9.499 -18.998,-15.605 -34.603,-14.927 -10.503,0.462 -23.069,10.856 -19.242,22.39 1.33,4.017 8.278,11.697 17.098,20.464 l 0.108,-0.109 92.275,31.21 z" />
    </g>
    <g
       transform="matrix(0.35277777,0,0,-0.35277777,21.136038,60.779687)"
       id="g4975">
      <path
         id="path4977"
         style="fill:#615441;fill-opacity:1;fill-rule:nonzero;stroke:none"
         d="M 0,0 C 0.298,1.194 4.342,14.791 27.655,17.966 57.264,21.983 67.441,30.369 71.893,26.597 80.604,19.161 63.072,5.564 63.072,5.564 L 58.838,5.184 C 45.269,7.219 32.649,5.726 26.189,3.99 19.133,4.994 9.879,3.555 0,0" />
    </g>
    <g
       transform="matrix(0.35277777,0,0,-0.35277777,41.892838,58.950993)"
       id="g4979">
      <path
         id="path4981"
         style="fill:#fff0d9;fill-opacity:1;fill-rule:nonzero;stroke:none"
         d="m 0,0 c 11.752,-1.764 24.209,-6.161 33.925,-15.334 l -0.516,-0.57 C -12.05,2.415 -56.83,-20.3 -56.83,-20.3 c -8.142,11.534 -28.496,0.325 -28.496,0.325 l -0.245,0.326 c 8.631,6.378 17.912,11.263 26.733,14.438 -0.027,-0.027 -0.027,-0.054 -0.027,-0.054 z" />
    </g>
    <g
       transform="matrix(0.35277777,0,0,-0.35277777,35.564348,101.93928)"
       id="g4983">
      <path
         id="path4985"
         style="fill:#29231b;fill-opacity:1;fill-rule:nonzero;stroke:none"
         d="m 0,0 c 1.14,-7.409 0.299,-15.768 -2.388,-24.398 -7.871,-25.702 -31.835,-53.709 -66.926,-65.814 20.924,7.654 35.851,27.737 35.851,51.321 0,8.549 -1.954,16.637 -5.455,23.829 11.236,0.135 23.421,3.745 37.181,15.062 0.163,0.109 0.353,0.272 0.516,0.407 C -0.787,0.76 -0.109,0.543 0,0" />
    </g>
    <g
       transform="matrix(0.35277777,0,0,-0.35277777,21.988102,136.61702)"
       id="g4987">
      <path
         id="path4989"
         style="fill:#bdaf99;fill-opacity:1;fill-rule:nonzero;stroke:none"
         d="M 0,0 C 14.9,4.179 27.221,14.194 37.019,26.461 30.424,12.538 28.931,-3.447 -5.156,-13.543 l -0.082,-0.027 c -2.605,6.514 -3.555,11.778 -3.555,11.778 l -0.027,0.571 c 0.76,0.027 3.962,0.19 8.766,1.438 z" />
    </g>
    <g
       transform="matrix(0.35277777,0,0,-0.35277777,9.9534227,134.1469)"
       id="g4991">
      <path
         id="path4993"
         style="fill:#e6d5ba;fill-opacity:1;fill-rule:nonzero;stroke:none"
         d="M 0,0 C 0.95,0.298 1.9,0.597 2.822,0.923 1.9,0.597 0.95,0.271 0,0" />
    </g>
    <g
       transform="matrix(0.35277777,0,0,-0.35277777,34.53041,101.42233)"
       id="g4995">
      <path
         id="path4997"
         style="fill:#4d4233;fill-opacity:1;fill-rule:nonzero;stroke:none"
         d="m 0,0 c 0,0 -19.16,-9.526 -41.931,-6.975 -11.724,1.303 -24.398,5.808 -35.932,16.474 -0.326,-0.027 -0.679,-0.054 -1.004,-0.081 l 0.162,-2.416 c 13.57,-17.858 27.357,-23.069 39.787,-23.503 0.977,-0.027 1.954,-0.054 2.931,-0.027 11.236,0.136 23.421,3.746 37.181,15.063 z" />
    </g>
    <g
       transform="matrix(0.35277777,0,0,-0.35277777,34.53041,101.42233)"
       id="g4999">
      <path
         id="path5001"
         style="fill:none;stroke:#4d4233;stroke-width:0.509;stroke-linecap:butt;stroke-linejoin:miter;stroke-miterlimit:10;stroke-dasharray:none;stroke-opacity:1"
         d="m 0,0 c 0,0 -19.16,-9.526 -41.931,-6.975 -11.724,1.303 -24.398,5.808 -35.932,16.474 -0.326,-0.027 -0.679,-0.054 -1.004,-0.081 l 0.162,-2.416 c 13.57,-17.858 27.357,-23.069 39.787,-23.503 0.977,-0.027 1.954,-0.054 2.931,-0.027 11.236,0.136 23.421,3.746 37.181,15.063 z" />
    </g>
    <g
       transform="matrix(0.35277777,0,0,-0.35277777,45.377956,101.34566)"
       id="g5003">
      <path
         id="path5005"
         style="fill:#615441;fill-opacity:1;fill-rule:nonzero;stroke:none"
         d="m 0,0 -1.466,0.027 c 0.109,6.432 -2.171,14.954 -10.096,20.083 -14.628,9.499 -36.122,0 -40.329,0.597 -4.206,0.598 -16.555,18.672 -36.72,22.879 -20.164,4.207 -40.763,-2.415 -40.763,-2.415 0,0 -5.645,-5.645 -10.856,-12.674 -2.307,-3.149 -4.369,-8.549 -5.944,-13.543 1.52,-0.706 5.863,-2.524 12.186,-3.99 6.378,-1.465 14.791,-2.578 24.372,-1.764 0.325,0.028 0.678,0.055 1.004,0.082 11.534,-10.666 24.208,-15.171 35.932,-16.474 22.771,-2.551 41.931,6.975 41.931,6.975 l 1.194,-1.465 c 0.163,0.108 0.353,0.271 0.516,0.407 0.434,0.352 1.112,0.135 1.221,-0.407 1.14,-7.41 0.299,-15.769 -2.388,-24.399 l 1.248,-0.38 c 0,0 -7.681,-58.784 -54.035,-73.955 l -0.027,-1.574 c 4.56,-0.109 7.925,0.217 7.925,0.217 l -0.027,0.57 c 0.76,0.027 3.962,0.19 8.766,1.438 l 0.054,-0.217 c 14.9,4.18 27.221,14.194 37.019,26.461 C -9.119,-48.254 0.434,-13.38 0,0" />
    </g>
    <g
       transform="matrix(0.35277777,0,0,-0.35277777,6.7077257,98.100014)"
       id="g5007">
      <path
         id="path5009"
         style="fill:#4d4233;fill-opacity:1;fill-rule:nonzero;stroke:none"
         d="m 0,0 c -9.58,-0.814 -17.993,0.298 -24.371,1.764 -6.324,1.466 -10.666,3.284 -12.186,3.989 -1.927,-6.187 -3.094,-11.778 -3.094,-11.778 0,0 0.136,-0.081 0.407,-0.19 2.633,-1.14 17.858,-6.866 39.407,3.8 z" />
    </g>
    <g
       transform="matrix(0.35277777,0,0,-0.35277777,6.7077257,98.100014)"
       id="g5011">
      <path
         id="path5013"
         style="fill:none;stroke:#4d4233;stroke-width:0.509;stroke-linecap:butt;stroke-linejoin:miter;stroke-miterlimit:10;stroke-dasharray:none;stroke-opacity:1"
         d="m 0,0 c -9.58,-0.814 -17.993,0.298 -24.371,1.764 -6.324,1.466 -10.666,3.284 -12.186,3.989 -1.927,-6.187 -3.094,-11.778 -3.094,-11.778 0,0 0.136,-0.081 0.407,-0.19 2.633,-1.14 17.858,-6.866 39.407,3.8 z" />
    </g>
    <g
       transform="matrix(0.35277777,0,0,-0.35277777,6.7650877,98.952078)"
       id="g5015">
      <path
         id="path5017"
         style="fill:#2a8a8a;fill-opacity:1;fill-rule:nonzero;stroke:none"
         d="m 0,0 c 13.57,-17.858 27.357,-23.069 39.787,-23.503 0.977,-0.027 1.954,-0.054 2.931,-0.027 3.501,-7.192 5.455,-15.28 5.455,-23.829 0,-23.584 -14.927,-43.667 -35.851,-51.32 -0.164,-0.082 -0.299,-0.136 -0.462,-0.163 -0.922,-0.326 -1.872,-0.625 -2.822,-0.923 -4.913,-1.438 -10.123,-2.225 -15.497,-2.225 -20.518,0 -38.403,11.317 -47.711,28.089 l 0.325,0.19 c 15.769,-22.282 94.989,-22.851 92.519,43.179 -23.069,-3.148 -40.492,22.851 -40.492,22.851 0,0 -27.14,-11.072 -40.248,0.217 l -0.733,0.869 c 1.086,0.977 2.226,1.9 3.393,2.795 C -36.774,-4.94 -21.549,-10.666 0,0" />
    </g>
    <g
       transform="matrix(0.35277777,0,0,-0.35277777,-8.7737863,105.10835)"
       id="g5019">
      <path
         id="path5021"
         style="fill:#43baba;fill-opacity:1;fill-rule:nonzero;stroke:none"
         d="m 0,0 c 0.19,0.245 0.516,0.326 0.787,0.19 1.655,-0.923 7.653,-4.071 14.818,-5.917 0.489,-0.135 0.651,-0.759 0.244,-1.058 -4.26,-3.229 -20.463,-16.664 -23.177,-36.367 -0.081,-0.678 -1.058,-0.733 -1.167,-0.054 C -9.988,-35.146 -11.887,-15.605 0,0" />
    </g>
    <g
       transform="matrix(0.35277777,0,0,-0.35277777,-12.344946,125.02269)"
       id="g5023">
      <path
         id="path5025"
         style="fill:#33a6a6;fill-opacity:1;fill-rule:nonzero;stroke:none"
         d="m 0,0 c -4.397,7.843 -6.894,16.908 -6.894,26.542 0,16.203 7.057,30.749 18.265,40.764 l 0.733,-0.869 C 25.213,55.148 52.352,66.22 52.352,66.22 c 0,0 17.424,-25.999 40.492,-22.851 C 95.314,-22.661 16.094,-22.092 0.326,0.19 Z M 10.91,56.64 C 10.639,56.776 10.313,56.695 10.123,56.45 -1.764,40.845 0.135,21.305 1.628,13.244 c 0.109,-0.678 1.086,-0.624 1.167,0.054 2.714,19.703 18.917,33.138 23.177,36.367 0.407,0.299 0.245,0.923 -0.244,1.059 -7.165,1.845 -13.163,4.994 -14.818,5.916" />
    </g>
    <g
       transform="matrix(0.35277777,0,0,-0.35277777,21.136038,60.779687)"
       id="g5027">
      <path
         id="path5029"
         style="fill:none;stroke:#000000;stroke-width:5.42799997;stroke-linecap:butt;stroke-linejoin:miter;stroke-miterlimit:10;stroke-dasharray:none;stroke-opacity:1"
         d="M 0,0 C 0.298,1.194 4.342,14.791 27.655,17.966 57.264,21.983 67.441,30.369 71.893,26.597 80.604,19.161 63.072,5.564 63.072,5.564" />
    </g>
    <g
       transform="matrix(0.35277777,0,0,-0.35277777,9.9534227,134.1469)"
       id="g5031">
      <path
         id="path5033"
         style="fill:none;stroke:#000000;stroke-width:5.42799997;stroke-linecap:round;stroke-linejoin:round;stroke-miterlimit:10;stroke-dasharray:none;stroke-opacity:1"
         d="m 0,0 c -4.913,-1.438 -10.123,-2.226 -15.497,-2.226 -20.517,0 -38.402,11.318 -47.711,28.09 -4.397,7.843 -6.894,16.908 -6.894,26.542 0,16.203 7.057,30.749 18.265,40.764 1.086,0.977 2.226,1.9 3.393,2.795" />
    </g>
    <g
       transform="matrix(0.35277777,0,0,-0.35277777,21.834962,107.25296)"
       id="g5035">
      <path
         id="path5037"
         style="fill:none;stroke:#000000;stroke-width:5.42799997;stroke-linecap:round;stroke-linejoin:round;stroke-miterlimit:10;stroke-dasharray:none;stroke-opacity:1"
         d="m 0,0 c 3.501,-7.192 5.455,-15.28 5.455,-23.828 0,-23.585 -14.927,-43.668 -35.851,-51.321" />
    </g>
    <g
       transform="matrix(0.35277777,0,0,-0.35277777,135.36593,100.80951)"
       id="g5039">
      <path
         id="path5041"
         style="fill:none;stroke:#000000;stroke-width:7;stroke-linecap:butt;stroke-linejoin:miter;stroke-miterlimit:10;stroke-dasharray:none;stroke-opacity:1"
         d="m 0,0 c -24.724,2.28 -57.074,-0.516 -74.145,-2.361 -4.75,-0.516 -8.332,-0.95 -10.232,-1.221 -1.004,-0.109 -1.547,-0.19 -1.547,-0.19 -3.826,8.141 -17.504,13.977 -34.494,15.144 -12.403,0.841 -22.363,0.325 -29.419,-0.435 -5.401,-0.597 -9.092,-1.33 -10.856,-1.737 -0.814,-0.19 -1.221,-0.298 -1.221,-0.298 0.733,22.01 -9.961,36.177 -18.699,44.047 -5.89,5.32 -10.91,7.735 -10.91,7.735 0,0 7.599,5.916 14.601,14.411 0.678,0.814 1.357,1.683 2.008,2.551 7.572,9.96 6.893,17.994 16.962,31.889 5.428,9.173 1.357,15.036 -11.181,15.144 -2.985,0.027 -6.432,-0.163 -10.042,-0.543 -11.643,-1.14 -25.212,-3.962 -31.699,-6.106 -8.467,-2.85 -16.609,-11.209 -19.784,-15.062 -0.136,0.108 -0.245,0.244 -0.381,0.352 -9.715,9.174 -22.172,13.57 -33.924,15.334 -13.57,2.035 -24.418,0.543 -30.877,-1.194 -7.056,1.004 -17.418,-0.434 -24.418,-3.99 v -0.027 c -11,-3.175 -19.874,-8.06 -28.504,-14.438 -9.689,-7.165 -19.395,-16.202 -25.746,-26.787 -4.071,-8.142 -8.259,-6.432 -10.973,-14.574 -2.876,-8.684 -0.221,-12.212 1.244,-17.993 0,0 -5.755,-5.645 -10.966,-12.674 -2.307,-3.148 -4.425,-8.549 -5.999,-13.543 -1.927,-6.188 -3.122,-11.778 -3.122,-11.778 0,0 0.122,-0.082 0.394,-0.19 2.632,-1.14 17.851,-6.867 39.399,3.799 13.57,-17.858 27.353,-23.069 39.783,-23.503 0.977,-0.027 1.953,-0.054 2.929,-0.027 11.236,0.136 23.421,3.745 37.181,15.062 0.163,0.109 0.352,0.272 0.515,0.408 0.435,0.352 1.113,0.135 1.221,-0.408 1.14,-7.408 0.299,-15.767 -2.388,-24.398 -7.87,-25.701 -31.835,-53.709 -66.926,-65.813 -0.163,-0.081 -0.299,-0.136 -0.462,-0.163 -0.922,-0.326 -1.872,-0.624 -2.822,-0.923 -1.792,-0.57 -3.583,-1.085 -5.428,-1.547 4.125,-5.943 15.144,-7.3 22.824,-7.463 4.56,-0.109 7.925,0.217 7.925,0.217 0,0 0.95,-5.265 3.555,-11.778 3.908,-9.906 11.616,-22.77 25.403,-24.399 0.163,-0.271 0.298,-0.57 0.434,-0.841 2.225,-4.18 3.772,-8.875 4.749,-13.896 4.994,-25.375 -4.369,-58.893 -15.577,-73.466 -5.049,-6.568 -28.307,-26.841 -44.889,-43.315 -8.821,-8.766 -15.768,-16.447 -17.099,-20.463 -3.826,-11.535 8.739,-21.929 19.242,-22.39 15.606,-0.679 21.034,5.428 34.603,14.926 5.591,3.936 32.975,36.259 55.664,59.002 11.751,11.805 22.227,21.033 27.791,22.417 0,0 5.943,-7.952 21.603,-16.664 14.112,-7.789 36.068,-16.229 68.635,-19.975 66.519,-7.68 185.363,50.751 213.263,67.849 0.95,0.57 1.764,1.086 2.497,1.574 58.349,-30.749 131.382,-16.283 166.446,-28.93 22.417,-8.115 35.39,-30.342 43.722,-46.68 4.722,-9.228 7.952,-16.583 10.557,-18.455 7.247,-5.211 18.536,1.113 21.712,5.428 3.175,4.288 4.532,15.143 1.818,28.931 -6.35,2.116 -17.505,15.333 -27.519,28.767 -11.372,15.198 -21.332,30.723 -21.332,30.723 0,0 -25.783,8.141 -34.386,25.565 -8.331,16.881 -31.21,63.099 -50.669,83.21 -1.357,1.411 -2.85,2.849 -4.478,4.342 -21.522,19.866 -63.751,46.029 -66.085,48.145 -0.461,0.435 -0.814,1.764 -1.085,3.664" />
    </g>
    <g
       transform="matrix(0.35277777,0,0,-0.35277777,-0.26229829,86.821514)"
       id="g5043">
      <path
         id="path5045"
         style="fill:none;stroke:#000000;stroke-width:4.0710001;stroke-linecap:round;stroke-linejoin:miter;stroke-miterlimit:10;stroke-dasharray:none;stroke-opacity:1"
         d="m 0,0 c 0,0 20.599,6.622 40.763,2.415 20.165,-4.206 32.514,-22.281 36.72,-22.878 4.207,-0.598 25.701,8.902 40.33,-0.598 7.924,-5.129 10.204,-13.651 10.095,-20.083 -0.054,-2.578 -0.488,-4.83 -1.085,-6.404" />
    </g>
    <g
       transform="matrix(0.35277777,0,0,-0.35277777,17.976199,137.14241)"
       id="g5047">
      <path
         id="path5049"
         style="fill:none;stroke:#000000;stroke-width:3;stroke-linecap:round;stroke-linejoin:miter;stroke-miterlimit:10;stroke-dasharray:none;stroke-opacity:1"
         d="m 0,0 h 2.552 c 0.76,0 3.963,0.324 8.766,1.572 7.355,1.981 17.6,6.963 27.099,19.555" />
    </g>
    <g
       transform="matrix(0.35277777,0,0,-0.35277777,150.53237,95.567316)"
       id="g5051">
      <path
         id="path5053"
         style="fill:none;stroke:#000000;stroke-width:6.10200024;stroke-linecap:butt;stroke-linejoin:miter;stroke-miterlimit:10;stroke-dasharray:none;stroke-opacity:1"
         d="M 0,0 V 0" />
    </g>
    <g
       transform="matrix(0.35277777,0,0,-0.35277777,150.56029,95.917016)"
       id="g5055">
      <path
         id="path5057"
         style="fill:none;stroke:#000000;stroke-width:5.42799997;stroke-linecap:butt;stroke-linejoin:miter;stroke-miterlimit:10;stroke-dasharray:none;stroke-opacity:1"
         d="m 0,0 c -2.795,4.234 -3.935,9.635 -3.229,14.465 1.356,9.173 11.968,11.67 17.396,9.282 C 19.595,21.386 22.987,13.705 20.518,8.82 15.334,-1.357 1.249,-0.136 0,0 Z" />
    </g>
    <g
       transform="matrix(0.35277777,0,0,-0.35277777,173.59589,108.47845)"
       id="g5059">
      <path
         id="path5061"
         style="fill:none;stroke:#000000;stroke-width:5.42799997;stroke-linecap:butt;stroke-linejoin:miter;stroke-miterlimit:10;stroke-dasharray:none;stroke-opacity:1"
         d="m 0,0 c 0,0.597 0,1.167 0.027,1.737 0.407,19.947 7.87,31.536 1.656,57.97 -2.633,11.154 -12.023,26.271 -27.737,35.281 -3.718,2.171 -7.762,3.962 -12.186,5.293 -5.862,1.763 -12.348,2.713 -19.432,2.496 -34.792,-1.004 -58.349,-27.818 -57.345,-57.671 0.027,-0.652 0.054,-1.276 0.108,-1.9 0.543,-8.115 2.877,-15.334 6.541,-21.467 9.282,-15.551 27.302,-24.209 47.521,-23.666 18.157,0.489 29.257,7.735 36.096,15.415 4.315,4.777 6.92,9.743 8.549,13.326 0.515,1.113 0.949,2.117 1.275,2.904 2.416,5.753 1.52,10.041 -1.058,11.887 -2.687,1.954 -7.219,1.221 -11.616,-3.284 -6.676,-6.839 -14.33,-11.019 -23.53,-10.476 -0.95,0.027 -1.927,0.136 -2.931,0.298 -4.912,0.815 -8.712,3.637 -11.181,7.383 -0.028,0.027 -0.055,0.054 -0.055,0.081" />
    </g>
    <g
       transform="matrix(0.35277777,0,0,-0.35277777,63.648442,76.449291)"
       id="g5063">
      <path
         id="path5065"
         style="fill:#000000;fill-opacity:1;fill-rule:nonzero;stroke:none"
         d="m 0,0 c -0.199,0 0.055,0.029 -0.146,0.09 -14.368,4.461 -14.319,24.59 -14.319,25.444 v 0.256 l -0.398,0.252 c 0.263,1.071 6.699,26.3 48.988,31.614 1.142,0.137 2.018,-0.652 2.159,-1.765 0.14,-1.116 -0.707,-2.134 -1.823,-2.274 C -2.935,48.917 -10.514,27.786 -11.272,25.308 -11.174,23.026 -10.126,7.312 0.619,3.981 1.692,3.647 2.284,2.505 1.95,1.431 1.679,0.559 0.869,0 0,0" />
    </g>
    <g
       transform="matrix(0.35277777,0,0,-0.35277777,75.47873,109.83185)"
       id="g5067">
      <path
         id="path5069"
         style="fill:#000000;fill-opacity:1;fill-rule:nonzero;stroke:none"
         d="m 0,0 c -0.244,0 -0.493,0.045 -0.734,0.138 -1.049,0.405 -1.569,1.585 -1.164,2.632 7,18.085 7.71,30.45 7.718,30.585 0.051,1.089 0.952,0.729 2.03,0.729 h 0.098 c 1.122,0 1.991,0.205 1.938,-0.916 C 9.859,32.59 9.157,19.445 1.898,0.696 1.585,-0.112 0.816,0 0,0" />
    </g>
    <g
       transform="matrix(0.35277777,0,0,-0.35277777,104.35377,110.6818)"
       id="g5071">
      <path
         id="path5073"
         style="fill:#000000;fill-opacity:1;fill-rule:nonzero;stroke:none"
         d="m 0,0 c -0.281,0 -0.564,0.058 -0.835,0.18 -1.026,0.461 -1.481,1.665 -1.02,2.69 4.977,11.071 2.361,19.197 2.335,19.276 -0.355,1.063 0.212,2.219 1.275,2.579 1.052,0.342 2.213,-0.201 2.576,-1.261 C 4.463,23.076 7.538,13.83 1.855,1.201 1.516,0.445 0.777,0 0,0" />
    </g>
    <g
       transform="matrix(0.35277777,0,0,-0.35277777,15.074222,86.556454)"
       id="g5075">
      <path
         id="path5077"
         style="fill:#000000;fill-opacity:1;fill-rule:nonzero;stroke:none"
         d="m 0,0 c -0.689,0 -1.28,0.525 -1.349,1.227 -1.534,15.971 7.466,65.906 48.676,76.908 0.732,0.185 1.469,-0.241 1.662,-0.962 C 49.182,76.449 48.75,75.704 48.027,75.511 8.139,64.865 0.08,14.725 1.354,1.487 1.426,0.742 0.88,0.077 0.132,0.005 0.088,0.003 0.045,0 0,0" />
    </g>
    <g
       transform="matrix(0.35277777,0,0,-0.35277777,40.021943,157.73432)"
       id="g5079">
      <path
         id="path5081"
         style="fill:#e6d5ba;fill-opacity:1;fill-rule:nonzero;stroke:none"
         d="m 0,0 c -0.602,-1.504 -5.116,-37.013 -25.277,-54.165 -20.162,-17.153 -66.804,-38.518 -78.841,-39.722 -12.037,-1.203 -18.356,5.116 -26.782,-6.018 -8.426,-11.134 2.832,-26.113 9.931,-29.189 9.027,-3.912 19.86,-4.514 31.897,-0.903 0.475,0.143 102.914,52.36 154.071,60.184 16.249,46.04 31.897,59.883 31.897,59.883" />
    </g>
    <g
       transform="matrix(0.35277777,0,0,-0.35277777,3.1447937,205.39271)"
       id="g5083">
      <path
         id="path5085"
         style="fill:#000000;fill-opacity:1;fill-rule:nonzero;stroke:none"
         d="m 0,0 c -6.215,0 -12.12,1.174 -17.514,3.509 -5.138,2.229 -11.73,9.377 -13.861,17.487 -1.54,5.86 -0.556,11.335 2.844,15.831 6.698,8.849 12.828,8.141 19.308,7.402 2.878,-0.334 5.854,-0.678 9.369,-0.321 10.893,1.09 56.988,21.765 77.353,39.088 11.285,9.602 19.347,26.654 23.961,50.679 0.305,1.591 0.393,2.023 0.557,2.431 0.562,1.391 2.152,2.056 3.53,1.505 1.344,-0.541 2.02,-2.035 1.558,-3.39 -0.068,-0.265 -0.167,-0.802 -0.312,-1.569 C 101.937,107.381 93.265,89.285 81.016,78.861 60.767,61.636 13.644,39.803 0.687,38.507 -3.414,38.099 -6.83,38.488 -9.841,38.835 -16.005,39.543 -19.377,39.93 -24.2,33.551 -26.596,30.386 -27.243,26.628 -26.124,22.374 -24.341,15.587 -18.725,9.95 -15.356,8.492 -6.66,4.718 3.655,4.429 14.489,7.638 c 0.215,0.106 0.623,0.31 1.214,0.602 31.274,15.552 108.087,52.175 151.812,59.466 16.101,44.968 31.462,58.914 32.117,59.492 1.116,0.991 2.836,0.89 3.83,-0.236 0.993,-1.121 0.887,-2.836 -0.236,-3.829 -0.143,-0.131 -15.399,-14.169 -31.134,-58.756 l -0.543,-1.532 -1.606,-0.247 C 126.074,55.888 42.644,15.576 18.12,3.382 16.943,2.796 16.286,2.51 16.246,2.499 10.691,0.832 5.234,0.003 0,0" />
    </g>
    <g
       transform="matrix(0.35277777,0,0,-0.35277777,29.766588,150.54101)"
       id="g5087">
      <path
         id="path5089"
         style="fill:#000000;fill-opacity:1;fill-rule:nonzero;stroke:none"
         d="m 0,0 c -1.585,0 -2.555,0.154 -2.672,0.172 -1.11,0.186 -1.858,1.235 -1.675,2.343 0.186,1.106 1.248,1.861 2.335,1.675 0.096,-0.016 7.57,-1.116 15.783,4.013 0.954,0.596 2.21,0.307 2.804,-0.647 C 17.171,6.602 16.882,5.349 15.928,4.752 9.419,0.684 3.344,0 0,0" />
    </g>
    <g
       transform="matrix(0.35277777,0,0,-0.35277777,9.1577677,90.481336)"
       id="g5091">
      <path
         id="path5093"
         style="fill:#29231b;fill-opacity:1;fill-rule:nonzero;stroke:none"
         d="m 0,0 c -4.675,1.023 -2.796,-7.923 -4.415,-7.461 -1.279,0.364 -3.134,7.018 -2.979,11.518 1.632,1.171 17.998,11.742 33.856,-7.26 -2.059,-7.118 -10.699,-11.483 -13.167,-9.847 -1.734,1.144 4.604,9.806 -0.253,9.498 -4.839,-0.34 -1.738,-9.551 -4.85,-9.679 -4.314,-0.181 -8.381,1.488 -9.09,2.762 C -1.625,-9.16 4.276,-0.938 0,0" />
    </g>
    <g
       transform="matrix(0.35277777,0,0,-0.35277777,18.492877,91.611293)"
       id="g5095">
      <path
         id="path5097"
         style="fill:#3b3227;fill-opacity:1;fill-rule:nonzero;stroke:none"
         d="m 0,0 c -15.858,19.002 -32.223,8.431 -33.856,7.26 -0.004,1.271 0.197,2.371 0.603,3.101 1.844,3.397 10.435,7.494 19.588,4.459 C -4.519,11.76 1.154,4.045 0,0" />
    </g>
    <g
       transform="matrix(0.35277777,0,0,-0.35277777,6.5493467,89.050258)"
       id="g5099">
      <path
         id="path5101"
         style="fill:none;stroke:#000000;stroke-width:2.71399999;stroke-linecap:butt;stroke-linejoin:miter;stroke-miterlimit:10;stroke-dasharray:none;stroke-opacity:1"
         d="M 0,0 C -0.004,1.271 0.197,2.371 0.603,3.102 2.447,6.499 11.038,10.595 20.191,7.561 29.337,4.5 35.01,-3.215 33.856,-7.26 c -2.059,-7.117 -10.699,-11.482 -13.167,-9.847 -1.734,1.144 4.604,9.807 -0.253,9.499 -4.839,-0.341 -1.738,-9.552 -4.85,-9.68 -4.314,-0.18 -8.381,1.488 -9.09,2.763 -0.727,1.308 5.174,9.531 0.898,10.468 C 2.719,-3.033 4.598,-11.98 2.979,-11.518 1.7,-11.153 -0.155,-4.5 0,0 Z" />
    </g>
    <g
       transform="matrix(0.35277777,0,0,-0.35277777,17.476242,101.02149)"
       id="g5103">
      <path
         id="path5105"
         style="fill:#000000;fill-opacity:1;fill-rule:nonzero;stroke:none"
         d="m 0,0 c -0.286,0 -0.52,-0.231 -0.52,-0.517 0,-0.572 1.037,-0.572 1.037,0 C 0.517,-0.231 0.286,0 0,0 m 0,-2.714 c -1.211,0 -2.197,0.986 -2.197,2.197 0,1.211 0.986,2.194 2.197,2.194 1.211,0 2.194,-0.983 2.194,-2.194 0,-1.211 -0.983,-2.197 -2.194,-2.197" />
    </g>
    <g
       transform="matrix(0.35277777,0,0,-0.35277777,-2.6296843,97.191884)"
       id="g5107">
      <path
         id="path5109"
         style="fill:#000000;fill-opacity:1;fill-rule:nonzero;stroke:none"
         d="m 0,0 c -0.286,0 -0.52,-0.23 -0.52,-0.517 0,-0.572 1.037,-0.572 1.037,0 C 0.517,-0.23 0.286,0 0,0 m 0,-2.714 c -1.211,0 -2.197,0.986 -2.197,2.197 0,1.211 0.986,2.195 2.197,2.195 1.211,0 2.195,-0.984 2.195,-2.195 0,-1.211 -0.984,-2.197 -2.195,-2.197" />
    </g>
    <g
       transform="matrix(0.35277777,0,0,-0.35277777,27.050428,101.02149)"
       id="g5111">
      <path
         id="path5113"
         style="fill:#000000;fill-opacity:1;fill-rule:nonzero;stroke:none"
         d="m 0,0 c -0.286,0 -0.52,-0.231 -0.52,-0.517 0,-0.572 1.037,-0.572 1.037,0 C 0.517,-0.231 0.286,0 0,0 m 0,-2.714 c -1.211,0 -2.197,0.986 -2.197,2.197 0,1.211 0.986,2.194 2.197,2.194 1.211,0 2.195,-0.983 2.195,-2.194 0,-1.211 -0.984,-2.197 -2.195,-2.197" />
    </g>
    <g
       transform="matrix(0.35277777,0,0,-0.35277777,22.263269,95.276962)"
       id="g5115">
      <path
         id="path5117"
         style="fill:#000000;fill-opacity:1;fill-rule:nonzero;stroke:none"
         d="m 0,0 c -0.286,0 -0.519,-0.231 -0.519,-0.517 0,-0.572 1.036,-0.572 1.036,0 C 0.517,-0.231 0.286,0 0,0 m 0,-2.714 c -1.211,0 -2.197,0.986 -2.197,2.197 0,1.211 0.986,2.194 2.197,2.194 1.211,0 2.194,-0.983 2.194,-2.194 0,-1.211 -0.983,-2.197 -2.194,-2.197" />
    </g>
    <g
       transform="matrix(0.35277777,0,0,-0.35277777,4.0723177,95.276962)"
       id="g5119">
      <path
         id="path5121"
         style="fill:#000000;fill-opacity:1;fill-rule:nonzero;stroke:none"
         d="m 0,0 c -0.286,0 -0.52,-0.231 -0.52,-0.517 0,-0.572 1.037,-0.572 1.037,0 C 0.517,-0.231 0.286,0 0,0 m 0,-2.714 c -1.211,0 -2.197,0.986 -2.197,2.197 0,1.211 0.986,2.194 2.197,2.194 1.211,0 2.194,-0.983 2.194,-2.194 0,-1.211 -0.983,-2.197 -2.194,-2.197" />
    </g>
    <g
       transform="matrix(0.35277777,0,0,-0.35277777,31.837429,97.191884)"
       id="g5123">
      <path
         id="path5125"
         style="fill:#000000;fill-opacity:1;fill-rule:nonzero;stroke:none"
         d="m 0,0 c -0.286,0 -0.519,-0.23 -0.519,-0.517 0,-0.572 1.036,-0.572 1.036,0 C 0.517,-0.23 0.286,0 0,0 m 0,-2.714 c -1.211,0 -2.197,0.986 -2.197,2.197 0,1.211 0.986,2.195 2.197,2.195 1.211,0 2.195,-0.984 2.195,-2.195 0,-1.211 -0.984,-2.197 -2.195,-2.197" />
    </g>
    <g
       transform="matrix(0.35277777,0,0,-0.35277777,0.24255271,91.447357)"
       id="g5127">
      <path
         id="path5129"
         style="fill:#000000;fill-opacity:1;fill-rule:nonzero;stroke:none"
         d="m 0,0 c -0.286,0 -0.52,-0.23 -0.52,-0.517 0,-0.572 1.037,-0.572 1.037,0 C 0.517,-0.23 0.286,0 0,0 m 0,-2.714 c -1.211,0 -2.197,0.986 -2.197,2.197 0,1.212 0.986,2.195 2.197,2.195 1.211,0 2.195,-0.983 2.195,-2.195 0,-1.211 -0.984,-2.197 -2.195,-2.197" />
    </g>
    <g
       transform="matrix(0.35277777,0,0,-0.35277777,12.107502,81.133343)"
       id="g5131">
      <path
         id="path5133"
         style="fill:#ffffff;fill-opacity:1;fill-rule:nonzero;stroke:none"
         d="m 0,0 c -4.424,-10.286 -33.599,-13.266 -39.813,-6.266 h -0.435 c 0.245,16 9.581,21.98 21.033,21.98 9.662,0 17.804,-6.514 20.273,-15.388 z" />
    </g>
    <g
       transform="matrix(0.35277777,0,0,-0.35277777,-1.9378253,83.343804)"
       id="g5135">
      <path
         id="path5137"
         style="fill:#d1d3d4;fill-opacity:1;fill-rule:nonzero;stroke:none"
         d="m 0,0 c 6.215,-7 35.39,-4.02 39.813,6.266 l 1.059,1.029 c 0.488,-1.791 0.76,-3.338 0.76,-5.293 0,-3.175 -0.733,-6.011 -2.008,-8.725 C 21.549,-4.661 4.75,-9.946 4.75,-9.946 c 0,0 -1.385,-0.146 -1.954,-0.445 -2.687,3.528 -5.347,7.969 -5.347,12.746 V 0 Z" />
    </g>
    <g
       transform="matrix(0.35277777,0,0,-0.35277777,39.317463,88.497041)"
       id="g5139">
      <path
         id="path5141"
         style="fill:#d1d3d4;fill-opacity:1;fill-rule:nonzero;stroke:none"
         d="m 0,0 c 0,-4.695 -1.465,-9.065 -3.935,-12.674 -13.108,2.388 -27.411,-3.528 -30.776,-3.04 -1.547,0.217 -4.207,2.796 -7.925,6.188 -1.167,2.497 -1.9,5.211 -2.09,8.088 l 0.95,0.081 c 8.929,-8.468 39.352,-9.96 42.419,7.246 l 0.516,0.136 C -0.298,4.125 0,2.09 0,0" />
    </g>
    <g
       transform="matrix(0.35277777,0,0,-0.35277777,23.519961,88.497041)"
       id="g5143">
      <path
         id="path5145"
         style="fill:#ffffff;fill-opacity:1;fill-rule:nonzero;stroke:none"
         d="m 0,0 c 0,12.376 10.015,22.39 22.39,22.39 10.259,0 18.917,-6.921 21.549,-16.365 L 43.424,5.889 C 40.357,-11.317 9.933,-9.825 1.004,-1.357 L 0.054,-1.438 C 0.027,-0.95 0,-0.489 0,0" />
    </g>
    <g
       transform="matrix(0.35277777,0,0,-0.35277777,62.291764,181.52605)"
       id="g5147">
      <path
         id="path5149"
         style="fill:#bdaf99;fill-opacity:1;fill-rule:nonzero;stroke:none"
         d="m 0,0 c -46.346,5.681 -184.28,-79.331 -182.626,-28.496 0,0 -5.197,0.789 -9.047,-4.298 -7.699,-10.173 2.334,-23.763 8.82,-26.573 8.249,-3.575 18.501,-3.981 29.499,-0.682 0.435,0.13 106.499,52.9 153.241,60.049" />
    </g>
    <g
       transform="matrix(0.35277777,0,0,-0.35277777,-5.9617943,195.17434)"
       id="g5151">
      <path
         id="path5153"
         style="fill:#000000;fill-opacity:1;fill-rule:nonzero;stroke:none"
         d="M 0,0 C 0,0 0.76,1.58 1.734,1.424 2.733,1.271 4.04,1.777 5.271,1.288 6.506,0.811 7.634,0.52 8.363,-0.099 c 0.368,-0.31 0.648,-0.385 0.825,-0.599 0.183,-0.201 0.287,-0.218 0.287,-0.218 0,0 -0.138,0.122 -0.378,0.249 C 8.866,-0.53 8.517,-0.349 8.092,-0.194 7.243,0.119 6.075,0.358 4.913,0.379 3.751,0.411 2.6,0.256 1.768,0.089 0.906,-0.084 0.453,-0.258 0.453,-0.258 c -0.913,-0.354 -1.94,0.1 -2.294,1.013 -0.355,0.912 0.098,0.355 1.01,0.709 C -0.618,1.547 -0.399,0 -0.184,0 Z" />
    </g>
    <g
       transform="matrix(0.35277777,0,0,-0.35277777,-5.2704373,199.78746)"
       id="g5155">
      <path
         id="path5157"
         style="fill:#000000;fill-opacity:1;fill-rule:nonzero;stroke:none"
         d="m 0,0 c 0,0 0.669,0.361 1.598,0.693 0.95,0.345 2.234,0.722 3.548,0.885 1.312,0.175 2.632,0.114 3.569,-0.079 0.471,-0.094 0.849,-0.2 1.106,-0.302 0.257,-0.09 0.404,-0.14 0.404,-0.14 0,0 -0.156,-0.003 -0.428,-0.007 C 9.53,1.059 9.147,1.028 8.701,0.96 7.806,0.826 6.673,0.464 5.644,-0.076 4.609,-0.606 3.677,-1.3 3.028,-1.847 2.355,-2.413 2.042,-2.785 2.042,-2.785 1.412,-3.534 0.294,-3.631 -0.455,-3.001 c -0.75,0.63 -0.846,1.748 -0.216,2.498 0.147,0.174 0.32,0.314 0.509,0.416 z" />
    </g>
    <g
       transform="matrix(0.35277777,0,0,-0.35277777,168.28856,224.76153)"
       id="g5159">
      <path
         id="path5161"
         style="fill:#000000;fill-opacity:1;fill-rule:nonzero;stroke:none"
         d="m 0,0 c 0,0 0.383,0.657 1.002,1.425 0.63,0.79 1.529,1.781 2.564,2.606 1.029,0.834 2.186,1.47 3.086,1.795 0.452,0.165 0.829,0.272 1.102,0.319 0.265,0.058 0.417,0.091 0.417,0.091 0,0 -0.131,-0.083 -0.361,-0.228 C 7.577,5.876 7.267,5.65 6.922,5.358 6.228,4.777 5.45,3.877 4.854,2.88 4.248,1.888 3.815,0.81 3.546,0.004 3.268,-0.83 3.195,-1.31 3.195,-1.31 3.048,-2.278 2.145,-2.944 1.177,-2.797 c -0.968,0.146 -1.634,1.049 -1.487,2.017 0.034,0.226 0.109,0.435 0.217,0.622 z" />
    </g>
    <g
       transform="matrix(0.35277777,0,0,-0.35277777,173.01074,226.52807)"
       id="g5163">
      <path
         id="path5165"
         style="fill:#000000;fill-opacity:1;fill-rule:nonzero;stroke:none"
         d="M 0,0 C 0,0 -0.07,0.757 -0.01,1.742 0.044,2.751 0.201,4.08 0.566,5.352 0.92,6.628 1.493,7.818 2.038,8.605 2.309,9.002 2.554,9.307 2.75,9.504 2.932,9.705 3.037,9.82 3.037,9.82 3.037,9.82 2.978,9.676 2.875,9.425 2.762,9.182 2.64,8.818 2.529,8.38 2.3,7.504 2.189,6.32 2.282,5.162 2.365,4.002 2.637,2.873 2.885,2.061 3.143,1.221 3.363,0.786 3.363,0.786 3.805,-0.087 3.455,-1.153 2.582,-1.596 1.708,-2.038 0.642,-1.688 0.199,-0.815 0.096,-0.612 0.036,-0.397 0.016,-0.183 Z" />
    </g>
    <g
       transform="matrix(0.35277777,0,0,-0.35277777,241.24517,198.90039)"
       id="g5167">
      <path
         id="path5169"
         style="fill:#000000;fill-opacity:1;fill-rule:nonzero;stroke:none"
         d="m 0,0 c 0,0 -0.501,0.571 -1.032,1.403 -0.549,0.848 -1.205,2.015 -1.657,3.259 -0.465,1.24 -0.701,2.539 -0.723,3.497 -0.014,0.48 0.005,0.871 0.048,1.146 0.029,0.269 0.046,0.423 0.046,0.423 0,0 0.037,-0.15 0.101,-0.414 C -3.165,9.051 -3.049,8.685 -2.883,8.265 -2.552,7.423 -1.946,6.4 -1.189,5.518 -0.44,4.628 0.444,3.875 1.123,3.364 1.824,2.836 2.258,2.614 2.258,2.614 3.129,2.167 3.473,1.099 3.027,0.228 2.581,-0.643 1.513,-0.988 0.641,-0.541 0.438,-0.437 0.264,-0.299 0.121,-0.138 Z" />
    </g>
    <g
       transform="matrix(0.35277777,0,0,-0.35277777,244.66173,195.83035)"
       id="g5171">
      <path
         id="path5173"
         style="fill:#000000;fill-opacity:1;fill-rule:nonzero;stroke:none"
         d="m 0,0 c 0,0 -0.646,0.402 -1.395,1.043 -0.771,0.654 -1.736,1.581 -2.529,2.64 -0.804,1.053 -1.407,2.228 -1.705,3.137 -0.152,0.457 -0.247,0.836 -0.287,1.111 -0.049,0.267 -0.078,0.419 -0.078,0.419 0,0 0.079,-0.133 0.218,-0.367 C -5.651,7.747 -5.435,7.43 -5.154,7.076 -4.593,6.366 -3.716,5.562 -2.737,4.937 -1.762,4.302 -0.698,3.837 0.1,3.545 0.925,3.243 1.404,3.155 1.404,3.155 2.367,2.981 3.006,2.058 2.831,1.095 2.656,0.132 1.733,-0.507 0.77,-0.332 0.546,-0.292 0.339,-0.21 0.155,-0.097 Z" />
    </g>
    <g
       transform="matrix(0.35277777,0,0,-0.35277777,5.8637587,80.4631)"
       id="g5175">
      <path
         id="path5177"
         style="fill:#000000;fill-opacity:1;fill-rule:nonzero;stroke:none"
         d="m 0,0 c -1.964,0 -3.562,-1.598 -3.562,-3.562 0,-1.964 1.598,-3.562 3.562,-3.562 1.964,0 3.562,1.598 3.562,3.562 C 3.562,-1.598 1.964,0 0,0" />
    </g>
    <g
       transform="matrix(0.35277777,0,0,-0.35277777,-2.3085333,82.350347)"
       id="g5179">
      <path
         id="path5181"
         style="fill:none;stroke:#000000;stroke-width:3;stroke-linecap:round;stroke-linejoin:round;stroke-miterlimit:10;stroke-dasharray:none;stroke-opacity:1"
         d="m 0,0 v -0.461 c 0,-4.777 1.909,-9.174 4.596,-12.702 0.57,0.299 1.05,0.489 1.05,0.489 0,0 16.877,5.373 34.951,3.311 1.276,2.714 2.047,5.726 2.047,8.902 0,1.954 -0.252,3.853 -0.74,5.644 C 39.434,14.058 30.993,20.572 21.332,20.572 9.879,20.572 0,11.398 0,0 Z" />
    </g>
    <g
       transform="matrix(0.35277777,0,0,-0.35277777,31.474791,87.120255)"
       id="g5183">
      <path
         id="path5185"
         style="fill:#000000;fill-opacity:1;fill-rule:nonzero;stroke:none"
         d="m 0,0 c -1.964,0 -3.562,-1.598 -3.562,-3.562 0,-1.964 1.598,-3.562 3.562,-3.562 1.964,0 3.562,1.598 3.562,3.562 C 3.562,-1.598 1.964,0 0,0" />
    </g>
    <g
       transform="matrix(0.35277777,0,0,-0.35277777,23.53909,89.004485)"
       id="g5187">
      <path
         id="path5189"
         style="fill:none;stroke:#000000;stroke-width:2.71399999;stroke-linecap:round;stroke-linejoin:round;stroke-miterlimit:10;stroke-dasharray:none;stroke-opacity:1"
         d="m 0,0 c 0.19,-2.877 0.923,-5.591 2.09,-8.088 3.718,-3.392 6.378,-5.97 7.925,-6.188 3.365,-0.488 17.668,5.428 30.776,3.04 2.47,3.61 3.935,7.979 3.935,12.674 0,2.09 -0.298,4.126 -0.841,6.025 C 41.252,16.908 32.595,23.828 22.336,23.828 9.96,23.828 -0.054,13.814 -0.054,1.438 -0.054,0.95 -0.027,0.489 0,0 Z" />
    </g>
  </g>
</svg>
