<svg xmlns="http://www.w3.org/2000/svg" xmlns:xlink="http://www.w3.org/1999/xlink" viewBox="0 0 604.29 561.73"><defs><style>.a,.i{fill:#564843;}.b{fill:#443833;}.b,.e,.f,.g,.h,.i,.j,.k,.l,.m,.n,.o{fill-rule:evenodd;}.c{fill:#ded3d0;}.d,.j{fill:#f5efef;}.e{fill:#9f2f60;}.f{fill:#f2a273;}.g{fill:#e3844e;}.h,.o{fill:#fff;}.k{fill:#beaea9;}.l{fill:#0b6d91;}.m{fill:#31a2cc;}.n{fill:#6fc8ee;}.o{opacity:0.2;}.p{fill:#edeced;}.q{fill:#1d1d1b;}.r{fill:#43ade2;}.s{fill:#ffdd67;}.t{fill:#eba353;}.u{fill:url(#a);}.v{fill:#15162e;}.w{fill:url(#b);}.x{fill:url(#c);}.y{fill:url(#d);}.z{fill:url(#e);}.aa{fill:none;stroke-miterlimit:10;stroke:url(#f);}</style><linearGradient id="a" x1="125.3" y1="186" x2="187.3" y2="206" gradientTransform="translate(329.66 -136.55) rotate(45)" gradientUnits="userSpaceOnUse"><stop offset="0" stop-color="#dc4692"/><stop offset="1" stop-color="#59c1d3"/></linearGradient><linearGradient id="b" x1="134.43" y1="157.7" x2="196.43" y2="177.71" xlink:href="#a"/><linearGradient id="c" x1="116.17" y1="214.29" x2="178.18" y2="234.3" xlink:href="#a"/><linearGradient id="d" x1="125.41" y1="185.67" x2="187.41" y2="205.68" xlink:href="#a"/><linearGradient id="e" x1="125.2" y1="186.32" x2="187.2" y2="206.33" xlink:href="#a"/><linearGradient id="f" x1="152.37" y1="191.92" x2="160.69" y2="200.23" gradientTransform="translate(329.66 -136.55) rotate(45)" gradientUnits="userSpaceOnUse"><stop offset="0" stop-color="#76ccf4"/><stop offset="1" stop-color="#d376ad"/></linearGradient></defs><title>smartphone</title><rect class="a" x="589.35" y="116.95" width="14.94" height="66.15"/><rect class="a" x="343.03" y="121.99" width="19.05" height="34.87"/><rect class="a" x="343.03" y="166.2" width="19.05" height="34.87"/><path class="b" d="M356.66,99.74a755.44,755.44,0,0,1,254.39,0V571.42a755.7,755.7,0,0,1-254.39,0Z" transform="translate(-9.89 -43.91)"/><rect class="c" x="359.23" y="96.11" width="229.49" height="391.12"/><circle class="d" cx="419.94" cy="206.54" r="44.94" transform="translate(-32.93 313.52) rotate(-45)"/><path class="e" d="M410,230.07h19.84c8.15,0,11.47,1.07,13.29,10.75l.71,3.77a45,45,0,0,1-47.84,0l.71-3.77C398.56,231.14,401.87,230.07,410,230.07Z" transform="translate(-9.89 -43.91)"/><path class="f" d="M413.35,216.08h13.19v15a6.62,6.62,0,0,1-6.6,6.59h0a6.61,6.61,0,0,1-6.59-6.59Z" transform="translate(-9.89 -43.91)"/><path class="g" d="M413.35,216.08h13.19v12a20.39,20.39,0,0,1-3.68.33h0a21,21,0,0,1-9.51-2.28Z" transform="translate(-9.89 -43.91)"/><path class="f" d="M419.94,179.35h0a21.16,21.16,0,0,1,21.1,21.1v4.48a21.16,21.16,0,0,1-21.1,21.1h0a21.16,21.16,0,0,1-21.1-21.1v-4.48A21.16,21.16,0,0,1,419.94,179.35Z" transform="translate(-9.89 -43.91)"/><path class="h" d="M429.85,216.39a11.36,11.36,0,0,1-9.91,5.85h0a11.36,11.36,0,0,1-9.91-5.85Z" transform="translate(-9.89 -43.91)"/><path class="i" d="M409.07,179.35h21.74A10.26,10.26,0,0,1,441,189.58h0a10.26,10.26,0,0,1-10.23,10.23H409.07a10.26,10.26,0,0,1-10.23-10.23h0A10.26,10.26,0,0,1,409.07,179.35Z" transform="translate(-9.89 -43.91)"/><rect class="a" x="386.5" y="128.72" width="25.9" height="27.18" rx="12.95"/><rect class="a" x="396.54" y="159.29" width="9.95" height="3.12" rx="1.56"/><rect class="a" x="399.97" y="160.33" width="4.12" height="5.76" rx="2.06"/><rect class="a" x="413.62" y="159.29" width="9.95" height="3.12" rx="1.56"/><rect class="a" x="416.02" y="160.33" width="4.12" height="5.76" rx="2.06"/><path class="j" d="M410,263.86h53.09l-7.07-17.26,28.22,17.26H558.5a26.68,26.68,0,0,1,26.6,26.6h0a26.68,26.68,0,0,1-26.6,26.6H410a26.68,26.68,0,0,1-26.6-26.6h0A26.68,26.68,0,0,1,410,263.86Z" transform="translate(-9.89 -43.91)"/><path class="k" d="M420.41,279.68h126.9a3.06,3.06,0,0,1,3.05,3.05h0a3.06,3.06,0,0,1-3.05,3.06H420.41a3.07,3.07,0,0,1-3.06-3.06h0a3.06,3.06,0,0,1,3.06-3.05Zm0,15.45h80.17a3.06,3.06,0,0,1,3.05,3.06h0a3.06,3.06,0,0,1-3.05,3.06H420.41a3.07,3.07,0,0,1-3.06-3.06h0A3.07,3.07,0,0,1,420.41,295.13Z" transform="translate(-9.89 -43.91)"/><circle class="d" cx="540.17" cy="377.2" r="44.94" transform="matrix(1, -0.03, 0.03, 1, -22.17, -25.67)"/><path class="j" d="M550.08,434.51H497l7.07-17.25-28.22,17.25H401.61A26.68,26.68,0,0,0,375,461.12h0a26.68,26.68,0,0,0,26.6,26.6H550.08a26.68,26.68,0,0,0,26.6-26.6h0A26.68,26.68,0,0,0,550.08,434.51Z" transform="translate(-9.89 -43.91)"/><path class="k" d="M412.8,450.33H539.7a3.06,3.06,0,0,1,3,3.06h0a3.06,3.06,0,0,1-3,3.05H412.8a3.06,3.06,0,0,1-3.05-3.05h0a3.06,3.06,0,0,1,3.05-3.06Zm0,15.46H493a3.06,3.06,0,0,1,3,3h0a3.06,3.06,0,0,1-3,3.06H412.8a3.06,3.06,0,0,1-3.05-3.06h0A3.06,3.06,0,0,1,412.8,465.79Z" transform="translate(-9.89 -43.91)"/><path class="i" d="M514.83,366h50.68a8.84,8.84,0,0,1,8.81,8.81h0a8.84,8.84,0,0,1-8.81,8.81H514.83a8.84,8.84,0,0,1-8.81-8.81h0A8.84,8.84,0,0,1,514.83,366Z" transform="translate(-9.89 -43.91)"/><path class="l" d="M536,388.11h8.27a1.53,1.53,0,0,1,1.53,1.52h0a1.54,1.54,0,0,1-1.53,1.53H536a1.53,1.53,0,0,1-1.52-1.53h0A1.52,1.52,0,0,1,536,388.11Z" transform="translate(-9.89 -43.91)"/><path class="l" d="M536,390.22h8.27a1.54,1.54,0,0,1,1.53,1.53h0a1.53,1.53,0,0,1-1.53,1.52H536a1.52,1.52,0,0,1-1.52-1.52h0A1.53,1.53,0,0,1,536,390.22Z" transform="translate(-9.89 -43.91)"/><path class="l" d="M536,392.33h8.27a1.54,1.54,0,0,1,1.53,1.53h0a1.54,1.54,0,0,1-1.53,1.53H536a1.53,1.53,0,0,1-1.52-1.53h0A1.53,1.53,0,0,1,536,392.33Z" transform="translate(-9.89 -43.91)"/><path class="l" d="M536,394.44h8.27a1.54,1.54,0,0,1,1.53,1.53h0a1.54,1.54,0,0,1-1.53,1.53H536a1.53,1.53,0,0,1-1.52-1.53h0A1.53,1.53,0,0,1,536,394.44Z" transform="translate(-9.89 -43.91)"/><path class="l" d="M536,396.55h8.27a1.54,1.54,0,0,1,1.53,1.53h0a1.54,1.54,0,0,1-1.53,1.53H536a1.53,1.53,0,0,1-1.52-1.53h0A1.53,1.53,0,0,1,536,396.55Z" transform="translate(-9.89 -43.91)"/><path class="l" d="M536,398.67h8.27a1.53,1.53,0,0,1,1.53,1.52h0a1.54,1.54,0,0,1-1.53,1.53H536a1.53,1.53,0,0,1-1.52-1.53h0A1.52,1.52,0,0,1,536,398.67Z" transform="translate(-9.89 -43.91)"/><path class="m" d="M523.81,360.56h32.71a14.25,14.25,0,0,1,14.21,14.2h0A14.25,14.25,0,0,1,556.52,389H523.81a14.24,14.24,0,0,1-14.2-14.2h0A14.24,14.24,0,0,1,523.81,360.56Z" transform="translate(-9.89 -43.91)"/><path class="n" d="M527.23,366.85h25.88a7.93,7.93,0,0,1,7.91,7.91h0a7.93,7.93,0,0,1-7.91,7.91H527.23a7.93,7.93,0,0,1-7.91-7.91h0A7.93,7.93,0,0,1,527.23,366.85Z" transform="translate(-9.89 -43.91)"/><path class="h" d="M530.73,368.11a4.59,4.59,0,1,1-4.58,4.58,4.59,4.59,0,0,1,4.58-4.58Zm18.88,0a4.59,4.59,0,1,1-4.59,4.58A4.58,4.58,0,0,1,549.61,368.11Z" transform="translate(-9.89 -43.91)"/><path class="l" d="M533.2,384.38h13.93a1,1,0,0,1,1,.94h0a1,1,0,0,1-1,.94H533.2a.94.94,0,0,1-.94-.94h0A.94.94,0,0,1,533.2,384.38Z" transform="translate(-9.89 -43.91)"/><path class="m" d="M523.81,401.36h32.71a14.26,14.26,0,0,1,13.4,9.51,44.94,44.94,0,0,1-59.51,0A14.28,14.28,0,0,1,523.81,401.36Z" transform="translate(-9.89 -43.91)"/><path class="n" d="M535.81,407.65h8.72a14.26,14.26,0,0,1,13.75,10.68,45.05,45.05,0,0,1-36.22,0A14.25,14.25,0,0,1,535.81,407.65Z" transform="translate(-9.89 -43.91)"/><path class="o" d="M356.66,99.74A753.89,753.89,0,0,1,549.08,91.8L411.65,578.73q-27.5-2.64-55-7.31Z" transform="translate(-9.89 -43.91)"/><ellipse class="p" cx="473.66" cy="553.1" rx="112.52" ry="8.63"/><circle class="d" cx="301.7" cy="112.78" r="68.87" transform="translate(-13.48 -33.78) rotate(-1.91)"/><path class="j" d="M334.53,204.61H236.09l13.11-32-52.33,32H59.21A49.47,49.47,0,0,0,9.89,253.94h0a49.47,49.47,0,0,0,49.32,49.33H334.53a49.48,49.48,0,0,0,49.33-49.33h0A49.48,49.48,0,0,0,334.53,204.61Z" transform="translate(-9.89 -43.91)"/><path class="q" d="M72,230.11a5.8,5.8,0,0,1-.68,2.77v0a5.34,5.34,0,0,1-.43.6,2.75,2.75,0,0,1-1.34.82,1.68,1.68,0,0,1-.45.06,1.58,1.58,0,0,1-1.3-.64,1.48,1.48,0,0,1-.28-.52,3.32,3.32,0,0,1-1.55.38,3.24,3.24,0,0,1-2.37-1,3.61,3.61,0,0,1-1-2.46,3.55,3.55,0,0,1,1-2.43A3.22,3.22,0,0,1,66,226.63a3.26,3.26,0,0,1,2.39,1.05,3.55,3.55,0,0,1,1,2.43v2.25l.12-.1a1.46,1.46,0,0,0,.22-.28A4.12,4.12,0,1,0,66,234.22a4.87,4.87,0,0,0,1-.1.94.94,0,0,1,1.16.67A1,1,0,0,1,67.5,236a6.16,6.16,0,0,1-1.5.19,6,6,0,1,1,6-6Zm-4.6,0A1.71,1.71,0,0,0,67,229a1.43,1.43,0,0,0-1-.43,1.39,1.39,0,0,0-1,.43,1.74,1.74,0,0,0,0,2.29,1.31,1.31,0,0,0,1,.43,1.35,1.35,0,0,0,1-.43A1.71,1.71,0,0,0,67.43,230.11Z" transform="translate(-9.89 -43.91)"/><path class="q" d="M81,236.15a3.6,3.6,0,0,1-3.58-3.58v-4.12a.93.93,0,0,1,.91-.91.92.92,0,0,1,.92.91v4.12A1.73,1.73,0,0,0,81,234.32a1.78,1.78,0,0,0,1.81-1.75v-4.12a.9.9,0,0,1,.89-.91,1,1,0,0,1,.93.91v4.12A3.63,3.63,0,0,1,81,236.15Z" transform="translate(-9.89 -43.91)"/><path class="q" d="M94.86,231.12v4.12a.91.91,0,0,1-.9.91.93.93,0,0,1-.91-.91v-4.12a1.77,1.77,0,0,0-1.79-1.74,1.72,1.72,0,0,0-1.72,1.74v4.12a.3.3,0,0,1,0,.17.93.93,0,0,1-.91.74.91.91,0,0,1-.91-.91v-6.79a.91.91,0,0,1,.91-.91.92.92,0,0,1,.84.54,3.45,3.45,0,0,1,1.83-.54A3.61,3.61,0,0,1,94.86,231.12Z" transform="translate(-9.89 -43.91)"/><path class="q" d="M105.78,226H103v9.19a.93.93,0,0,1-.94,1,1,1,0,0,1-.95-1V226H98.43a1,1,0,0,1-.94-1,.93.93,0,0,1,.94-1h7.35a.94.94,0,0,1,1,1A1,1,0,0,1,105.78,226Z" transform="translate(-9.89 -43.91)"/><path class="q" d="M118.72,228.92l-2.84,6.68a.88.88,0,0,1-.07.13s0,0,0,0a.87.87,0,0,1-.09.11h0a.44.44,0,0,1-.11.09s0,0,0,0a.38.38,0,0,1-.15.09,0,0,0,0,0,0,0l-.13,0h0a.44.44,0,0,1-.17,0,.47.47,0,0,1-.16,0h0a.24.24,0,0,0-.12,0l0,0h0a.44.44,0,0,1-.15-.1v0a.22.22,0,0,1-.1-.09h0s-.07-.07-.08-.11a0,0,0,0,1,0,0,.88.88,0,0,1-.07-.13l-1.26-3-1.22,3-.08.13v0l-.11.11h0l-.1.11a.77.77,0,0,1-.15.1h0a0,0,0,0,0,0,0,.17.17,0,0,0-.1,0h0a.58.58,0,0,1-.18,0,.47.47,0,0,1-.17,0h0a.19.19,0,0,0-.1,0l0,0a.31.31,0,0,1-.15-.1s0,0,0,0l-.1-.09h0s0-.07-.07-.11,0,0,0,0,0-.1-.09-.13l-2.82-6.68a.89.89,0,0,1,.5-1.19.85.85,0,0,1,1.13.52l2,4.63,1.21-2.88a.92.92,0,0,1,.84-.55.9.9,0,0,1,.85.55l1.22,2.88,2-4.63a.86.86,0,0,1,1.15-.52A.9.9,0,0,1,118.72,228.92Z" transform="translate(-9.89 -43.91)"/><path class="q" d="M123.28,225.39a.93.93,0,1,1-1.86,0V225a.93.93,0,0,1,1.86,0Zm0,3.12v6.71a.93.93,0,0,1-1.86,0v-6.71a.93.93,0,1,1,1.86,0Z" transform="translate(-9.89 -43.91)"/><path class="q" d="M130.11,228.49a1,1,0,0,1-1,.95h-.44v4.8a1,1,0,0,1,0,1.91,1.92,1.92,0,0,1-1.91-1.91v-4.8h-.49a1,1,0,0,1-1-.95.94.94,0,0,1,1-1h.49v-2.49a1,1,0,0,1,1-1,.93.93,0,0,1,.94,1v2.49h.44A1,1,0,0,1,130.11,228.49Z" transform="translate(-9.89 -43.91)"/><path class="q" d="M135.91,228.49a1,1,0,0,1-1,.95h-.43v4.8a1,1,0,0,1,0,1.91,1.92,1.92,0,0,1-1.91-1.91v-4.8h-.5a1,1,0,0,1-.94-.95.93.93,0,0,1,.94-1h.5v-2.49a1,1,0,0,1,1-1,.93.93,0,0,1,.94,1v2.49h.43A1,1,0,0,1,135.91,228.49Z" transform="translate(-9.89 -43.91)"/><path class="q" d="M139.45,234.89a4.3,4.3,0,0,1-1.19-3,4.45,4.45,0,0,1,1.19-3,4,4,0,0,1,3-1.31,3.82,3.82,0,0,1,2.88,1.31,4.32,4.32,0,0,1,1.2,3,4.18,4.18,0,0,1-1.2,3,3.82,3.82,0,0,1-2.88,1.31A4,4,0,0,1,139.45,234.89Zm.69-3a2.79,2.79,0,0,0,.62,1.83,2.34,2.34,0,0,0,1.65.63,2.3,2.3,0,0,0,1.59-.63,2.67,2.67,0,0,0,.67-1.83,2.61,2.61,0,0,0-.67-1.79,2.46,2.46,0,0,0-1.59-.65,2.49,2.49,0,0,0-1.65.65A2.72,2.72,0,0,0,140.14,231.86Z" transform="translate(-9.89 -43.91)"/><path class="q" d="M149,233.69a.89.89,0,0,1,1.29-.14,3.2,3.2,0,0,0,1.89.76,2.28,2.28,0,0,0,1.17-.33.68.68,0,0,0,.31-.52.23.23,0,0,0,0-.17s-.08-.12-.22-.21a4,4,0,0,0-1.38-.48h0a6.17,6.17,0,0,1-1.49-.45,2.84,2.84,0,0,1-1.19-1,2.09,2.09,0,0,1-.29-1.09,2.4,2.4,0,0,1,1-1.89,3.74,3.74,0,0,1,2.12-.64,4.4,4.4,0,0,1,2.58,1,1,1,0,0,1,.28,1.27.91.91,0,0,1-1.28.24,2.94,2.94,0,0,0-1.58-.63,1.68,1.68,0,0,0-1,.31.51.51,0,0,0-.28.39.17.17,0,0,0,0,.14.4.4,0,0,0,.18.17,3.46,3.46,0,0,0,1.26.41l0,0h0a6.62,6.62,0,0,1,1.6.5,2.66,2.66,0,0,1,1.22,1,2.18,2.18,0,0,1,.33,1.13,2.49,2.49,0,0,1-1.09,2,3.91,3.91,0,0,1-2.24.69,5,5,0,0,1-3.06-1.19A.91.91,0,0,1,149,233.69Z" transform="translate(-9.89 -43.91)"/><path class="q" d="M165.74,236.08a.59.59,0,0,1-.14-.19l-3.16-7.54a.4.4,0,1,1,.74-.31l2.8,6.65,2.81-6.65a.4.4,0,1,1,.74.31l-3.15,7.47a.67.67,0,0,1-.1.21.39.39,0,0,1-.28.12.34.34,0,0,1-.14,0l0,0A.16.16,0,0,1,165.74,236.08Z" transform="translate(-9.89 -43.91)"/><path class="q" d="M176.13,227.71a4.23,4.23,0,1,1-4,4.22A4.13,4.13,0,0,1,176.13,227.71Zm0,7.61a3.41,3.41,0,1,0-3.16-3.39A3.29,3.29,0,0,0,176.13,235.32Z" transform="translate(-9.89 -43.91)"/><path class="q" d="M182.84,228.11a.42.42,0,0,1,.83,0v4.6a2.6,2.6,0,1,0,5.2,0v-4.6a.42.42,0,0,1,.84,0v4.6a3.44,3.44,0,1,1-6.87,0Z" transform="translate(-9.89 -43.91)"/><path class="q" d="M193,234.39a.41.41,0,0,1,.58,0,4.54,4.54,0,0,0,2.58,1,2.51,2.51,0,0,0,1.6-.51,1.28,1.28,0,0,0,.64-1,1.34,1.34,0,0,0-.6-1,4.13,4.13,0,0,0-1.79-.62l0,0a4.83,4.83,0,0,1-1.91-.65,1.77,1.77,0,0,1-.91-1.52,2.1,2.1,0,0,1,.91-1.65,3.68,3.68,0,0,1,2.07-.57,4.47,4.47,0,0,1,2.51.92.43.43,0,0,1,.12.58.42.42,0,0,1-.57.12,3.65,3.65,0,0,0-2.06-.84,2.54,2.54,0,0,0-1.6.48,1.25,1.25,0,0,0-.53,1,1,1,0,0,0,.48.85,4.19,4.19,0,0,0,1.72.58h0a5.76,5.76,0,0,1,2,.69,2.11,2.11,0,0,1,1,1.72,2.15,2.15,0,0,1-1,1.71,3.42,3.42,0,0,1-2.1.67,5.13,5.13,0,0,1-3.11-1.21A.39.39,0,0,1,193,234.39Z" transform="translate(-9.89 -43.91)"/><path class="q" d="M214.26,228.13v7.6a.41.41,0,1,1-.82,0v-1.25a4,4,0,0,1-3.17,1.67,4.23,4.23,0,0,1,0-8.44,3.94,3.94,0,0,1,3.17,1.66v-1.24a.41.41,0,1,1,.82,0Zm-.82,3.8a3.18,3.18,0,1,0-3.17,3.39A3.3,3.3,0,0,0,213.44,231.93Z" transform="translate(-9.89 -43.91)"/><path class="q" d="M222.83,228.11a.41.41,0,0,1,.41-.41.4.4,0,0,1,.41.41v4.6a2.6,2.6,0,1,0,5.2,0v-4.6a.42.42,0,0,1,.42-.41.41.41,0,0,1,.43.41v4.6a3.44,3.44,0,1,1-6.87,0Z" transform="translate(-9.89 -43.91)"/><path class="q" d="M239.16,231.16a2.59,2.59,0,0,0-2.6-2.6,2.65,2.65,0,0,0-2.62,2.6v4.64a.33.33,0,0,1-.08.19.36.36,0,0,1-.31.16h-.11a.44.44,0,0,1-.27-.23s0,0,0,0l0,0v-7.7a.41.41,0,0,1,.42-.41.4.4,0,0,1,.39.41V229a3.43,3.43,0,0,1,6.05,2.21v4.57a.42.42,0,1,1-.83,0Z" transform="translate(-9.89 -43.91)"/><path class="q" d="M247.4,224.55a.42.42,0,0,1-.41.41c-.59,0-.9.12-1.07.33a2.05,2.05,0,0,0-.34,1.39v.9h1.18a.42.42,0,1,1,0,.84h-1.18v7.33a.43.43,0,0,1-.85,0v-7.33h-1.12a.42.42,0,0,1-.41-.43.42.42,0,0,1,.41-.41h1.12v-.9a3,3,0,0,1,.55-2,2.25,2.25,0,0,1,1.71-.6A.42.42,0,0,1,247.4,224.55Z" transform="translate(-9.89 -43.91)"/><path class="q" d="M253.3,227.71a4.23,4.23,0,1,1-4,4.22A4.13,4.13,0,0,1,253.3,227.71Zm0,7.61a3.41,3.41,0,1,0-3.17-3.39A3.3,3.3,0,0,0,253.3,235.32Z" transform="translate(-9.89 -43.91)"/><path class="q" d="M260.58,224.51a.42.42,0,0,1,.41-.41.42.42,0,0,1,.43.41v11.22a.42.42,0,1,1-.84,0Z" transform="translate(-9.89 -43.91)"/><path class="q" d="M264.86,224.51a.43.43,0,0,1,.85,0v11.22a.43.43,0,0,1-.85,0Z" transform="translate(-9.89 -43.91)"/><path class="q" d="M272.62,227.71a4.23,4.23,0,1,1-4,4.22A4.13,4.13,0,0,1,272.62,227.71Zm0,7.61a3.41,3.41,0,1,0-3.16-3.39A3.3,3.3,0,0,0,272.62,235.32Z" transform="translate(-9.89 -43.91)"/><path class="q" d="M281.91,236.08a.35.35,0,0,1-.17-.19l-3.16-7.54a.4.4,0,1,1,.74-.31l2.8,6.65,1.95-4.64a.44.44,0,0,1,.39-.25.45.45,0,0,1,.41.25l1.95,4.64,2.79-6.65a.4.4,0,0,1,.53-.22.41.41,0,0,1,.23.53l-3.15,7.51a.53.53,0,0,1-.16.2.39.39,0,0,1-.21.09h-.08a.41.41,0,0,1-.33-.26l0,0-2-4.66-1.94,4.65a0,0,0,0,0,0,0,.41.41,0,0,1-.36.26.47.47,0,0,1-.16,0A.09.09,0,0,1,281.91,236.08Z" transform="translate(-9.89 -43.91)"/><path class="r" d="M301.79,234.55a2.24,2.24,0,0,1-.37-.1,2.28,2.28,0,0,1-.36-.15,4.14,4.14,0,0,1-.68-.39,3.72,3.72,0,0,1-1.05-1.18,3.37,3.37,0,0,1-.46-1.51,4,4,0,0,1,0-.77c0-.13.05-.26.08-.38a2.17,2.17,0,0,1,.12-.36l0,.37c0,.13,0,.25,0,.37a5.55,5.55,0,0,0,.13.71,4.89,4.89,0,0,0,.51,1.3,5.14,5.14,0,0,0,.86,1.12l.53.5.29.24Z" transform="translate(-9.89 -43.91)"/><path class="r" d="M301.71,235.53l-.28.1-.29.07a3.12,3.12,0,0,1-.61,0,2.79,2.79,0,0,1-1.19-.33,2.68,2.68,0,0,1-.91-.83,2.47,2.47,0,0,1-.29-.53l-.09-.28c0-.1,0-.2-.05-.3l.2.22a1.29,1.29,0,0,0,.19.21,4.68,4.68,0,0,0,.38.39,4.44,4.44,0,0,0,.85.61,4.69,4.69,0,0,0,1,.4l.54.13.28.05Z" transform="translate(-9.89 -43.91)"/><path class="r" d="M307.78,222.47c.13,0,.25.08.38.12l.36.17a4.07,4.07,0,0,1,.67.44,3.8,3.8,0,0,1,1,1.23,3.47,3.47,0,0,1,.38,1.54,3.3,3.3,0,0,1-.07.77c0,.13-.06.26-.1.38a2.75,2.75,0,0,1-.15.36v-.38c0-.13,0-.25,0-.37a5.43,5.43,0,0,0-.1-.72,4.51,4.51,0,0,0-.45-1.34,5.33,5.33,0,0,0-.82-1.16,5.19,5.19,0,0,0-.52-.53l-.28-.26Z" transform="translate(-9.89 -43.91)"/><path class="r" d="M310.13,222.34l.28.11a1.26,1.26,0,0,1,.26.13,2.69,2.69,0,0,1,1.16,1.33,2.47,2.47,0,0,1,.16,1.17,2.79,2.79,0,0,1-.14.57,1.51,1.51,0,0,1-.12.26,1.65,1.65,0,0,1-.15.25v-.29a2.44,2.44,0,0,0,0-.27,3,3,0,0,0,0-.52,4,4,0,0,0-.24-1,4.28,4.28,0,0,0-.48-.89l-.32-.43-.18-.21Z" transform="translate(-9.89 -43.91)"/><path class="s" d="M300.16,226.35a1.06,1.06,0,0,0-.48,1.42l3.39,7.08L305,234l-3.39-7.08A1,1,0,0,0,300.16,226.35Z" transform="translate(-9.89 -43.91)"/><path class="s" d="M309.07,232l2-.95L307.2,223a1.1,1.1,0,0,0-1.47-.51h0a1.1,1.1,0,0,0-.51,1.48Z" transform="translate(-9.89 -43.91)"/><path class="t" d="M305.73,222.44h0l-.16.1a1.1,1.1,0,0,1,1.28.58l3.87,8.08.35-.17L307.2,223A1.1,1.1,0,0,0,305.73,222.44Z" transform="translate(-9.89 -43.91)"/><path class="s" d="M305,234l2.06-1-3.95-8.24a1.14,1.14,0,0,0-1.52-.56h0a1.15,1.15,0,0,0-.53,1.53Z" transform="translate(-9.89 -43.91)"/><path class="t" d="M301.54,224.17h0a.54.54,0,0,0-.16.1,1.14,1.14,0,0,1,1.34.62l2.45,5.12.6.35-2.7-5.64A1.14,1.14,0,0,0,301.54,224.17Z" transform="translate(-9.89 -43.91)"/><path class="s" d="M306.69,232.3l2.06-1-3.95-8.24a1.15,1.15,0,0,0-1.52-.55h0a1.16,1.16,0,0,0-.53,1.54Z" transform="translate(-9.89 -43.91)"/><path class="t" d="M303.28,222.52h0l-.17.11a1.15,1.15,0,0,1,1.35.61l2.77,5.8.6.35-3-6.32A1.15,1.15,0,0,0,303.28,222.52Z" transform="translate(-9.89 -43.91)"/><path class="t" d="M300.16,226.35a1,1,0,0,0-.17.1,1.06,1.06,0,0,1,1.21.59l2,4.21.6.35-2.26-4.73A1,1,0,0,0,300.16,226.35Z" transform="translate(-9.89 -43.91)"/><path class="s" d="M313.8,225.56c-.73-.56-1.92.06-2.51,2-.4,1.36-.45,1.74-1.31,2.15l-.48-1s-7.62,3.68-7.33,4.28a11.09,11.09,0,0,0,2.46,4.18c2.31,2,7.71-.15,7.95-5.26C312.73,228.9,314.6,226.18,313.8,225.56Z" transform="translate(-9.89 -43.91)"/><path class="t" d="M313.8,225.56a1,1,0,0,0-.46-.19l.1.07c.8.61,0,2.05-.48,3.33a8,8,0,0,0-.64,3.09,5.69,5.69,0,0,1-6.95,5.77,5.67,5.67,0,0,0,7.31-5.64,7.8,7.8,0,0,1,.63-3.09C313.77,227.61,314.6,226.18,313.8,225.56Z" transform="translate(-9.89 -43.91)"/><path class="t" d="M310.23,229.58c-1.65.18-4.12,2.57-2.39,5.18-1.26-2.62.81-4.41,2.12-5Z" transform="translate(-9.89 -43.91)"/><path class="q" d="M320.39,234.43a.86.86,0,1,1-.87.86A.85.85,0,0,1,320.39,234.43Z" transform="translate(-9.89 -43.91)"/><path class="q" d="M61.32,244.57a6.39,6.39,0,0,1,3.89,1.33.41.41,0,0,1,.07.6.39.39,0,0,1-.58.09,5.51,5.51,0,0,0-3.38-1.17,5.27,5.27,0,1,0,0,10.53,5.09,5.09,0,0,0,3.34-1.17.42.42,0,0,1,.6.1.41.41,0,0,1-.05.61,6.36,6.36,0,0,1-3.89,1.3,6.11,6.11,0,1,1,0-12.22Z" transform="translate(-9.89 -43.91)"/><path class="q" d="M67.89,252.6a4.08,4.08,0,1,1,8.16-.31h0v0a.39.39,0,0,1-.41.38H68.72A3.32,3.32,0,0,0,72,256a3.19,3.19,0,0,0,2.72-1.53.4.4,0,0,1,.55-.14.44.44,0,0,1,.14.58A4,4,0,0,1,72,256.79,4.15,4.15,0,0,1,67.89,252.6Zm.88-.68h6.39A3.26,3.26,0,0,0,72,249.19,3.29,3.29,0,0,0,68.77,251.92Z" transform="translate(-9.89 -43.91)"/><path class="q" d="M83.53,252.56a4.25,4.25,0,0,1,4.34-4.2,4.35,4.35,0,0,1,2.68.93.39.39,0,0,1,.06.57.44.44,0,0,1-.57.07,3.44,3.44,0,1,0-2.17,6,3.58,3.58,0,0,0,2.17-.74.42.42,0,0,1,.57.07.41.41,0,0,1-.09.6,4.36,4.36,0,0,1-2.65.89A4.25,4.25,0,0,1,83.53,252.56Z" transform="translate(-9.89 -43.91)"/><path class="q" d="M97.3,248.36a4.22,4.22,0,1,1-4,4.22A4.13,4.13,0,0,1,97.3,248.36Zm0,7.61a3.41,3.41,0,1,0-3.17-3.39A3.3,3.3,0,0,0,97.3,256Z" transform="translate(-9.89 -43.91)"/><path class="q" d="M116.52,251.8a2.61,2.61,0,1,0-5.21,0v4.65a.07.07,0,0,1,0,0v0a.45.45,0,0,1-.21.22.39.39,0,0,1-.2.05h-.13s-.06,0-.1,0,0,0-.05,0l0-.05s0,0,0,0a.06.06,0,0,0,0,0,0,0,0,0,0,0,0s0,0,0-.05V251.8a2.6,2.6,0,1,0-5.2,0v4.6a.37.37,0,0,1-.19.33.19.19,0,0,1-.1,0h-.17a.45.45,0,0,1-.35-.3v-7.72a.4.4,0,0,1,.4-.39.39.39,0,0,1,.41.39v.81a3.37,3.37,0,0,1,2.6-1.2,3.43,3.43,0,0,1,3,1.79,3.47,3.47,0,0,1,3-1.79,3.42,3.42,0,0,1,3.43,3.42v4.6a.41.41,0,0,1-.81,0Z" transform="translate(-9.89 -43.91)"/><path class="q" d="M120.82,252.72v-3.95a.42.42,0,0,1,.41-.41.42.42,0,0,1,.43.41V250a4,4,0,0,1,3.2-1.64,4.19,4.19,0,0,1,0,8.38,3.94,3.94,0,0,1-3.2-1.65v4.82a.42.42,0,0,1-.43.41.42.42,0,0,1-.41-.41Zm.84-.18a3.22,3.22,0,1,0,6.44,0,3.22,3.22,0,1,0-6.44-.13Z" transform="translate(-9.89 -43.91)"/><path class="q" d="M135.12,248.77a.45.45,0,0,1-.42.42h-1.08v6.14a.65.65,0,0,0,.62.62.49.49,0,0,1,.43.43.46.46,0,0,1-.43.41,1.42,1.42,0,0,1-1.48-1.46v-6.14h-1c-.42,0-.42-.21-.42-.42s0-.41.42-.41h1v-3.13a.43.43,0,0,1,.41-.41.46.46,0,0,1,.45.41v3.13h1.08A.45.45,0,0,1,135.12,248.77Z" transform="translate(-9.89 -43.91)"/><path class="q" d="M137.76,252.6a4.08,4.08,0,1,1,8.16-.31h0v0a.39.39,0,0,1-.41.38h-6.92a3.32,3.32,0,0,0,3.27,3.24,3.19,3.19,0,0,0,2.72-1.53.4.4,0,0,1,.55-.14.44.44,0,0,1,.14.58,4,4,0,0,1-3.41,1.91A4.15,4.15,0,0,1,137.76,252.6Zm.88-.68H145a3.26,3.26,0,0,0-3.17-2.73A3.29,3.29,0,0,0,138.64,251.92Z" transform="translate(-9.89 -43.91)"/><path class="q" d="M156.71,256.73a.94.94,0,0,1-.14-.19L153.4,249a.43.43,0,0,1,.21-.54.4.4,0,0,1,.53.23l2.81,6.64,2.81-6.64a.4.4,0,0,1,.53-.23.42.42,0,0,1,.21.54l-3.15,7.47a.56.56,0,0,1-.11.2.35.35,0,0,1-.27.12h-.14l0,0S156.74,256.74,156.71,256.73Z" transform="translate(-9.89 -43.91)"/><path class="q" d="M167.1,248.36a4.22,4.22,0,1,1-4,4.22A4.13,4.13,0,0,1,167.1,248.36Zm0,7.61a3.41,3.41,0,1,0-3.17-3.39A3.31,3.31,0,0,0,167.1,256Z" transform="translate(-9.89 -43.91)"/><path class="q" d="M173.81,248.76a.42.42,0,1,1,.83,0v4.59a2.6,2.6,0,1,0,5.19,0v-4.59a.43.43,0,0,1,.42-.42.42.42,0,0,1,.43.42v4.59a3.44,3.44,0,1,1-6.87,0Z" transform="translate(-9.89 -43.91)"/><path class="q" d="M183.94,255a.41.41,0,0,1,.59,0,4.49,4.49,0,0,0,2.58,1,2.53,2.53,0,0,0,1.6-.52,1.25,1.25,0,0,0,.64-1,1.32,1.32,0,0,0-.6-1,4.24,4.24,0,0,0-1.79-.62l0,0a4.88,4.88,0,0,1-1.91-.65,1.77,1.77,0,0,1-.91-1.52,2.1,2.1,0,0,1,.91-1.65,3.6,3.6,0,0,1,2.07-.57,4.54,4.54,0,0,1,2.51.91.44.44,0,0,1,.12.59.42.42,0,0,1-.57.12,3.71,3.71,0,0,0-2.06-.84,2.54,2.54,0,0,0-1.6.48,1.25,1.25,0,0,0-.54,1,1,1,0,0,0,.48.84,4.23,4.23,0,0,0,1.73.59h0a5.83,5.83,0,0,1,2,.69,2.09,2.09,0,0,1,.94,1.72,2.12,2.12,0,0,1-1,1.7,3.42,3.42,0,0,1-2.1.67,5,5,0,0,1-3.11-1.2A.39.39,0,0,1,183.94,255Z" transform="translate(-9.89 -43.91)"/><path class="q" d="M205.23,248.77v7.61a.42.42,0,0,1-.83,0v-1.25a3.93,3.93,0,0,1-3.16,1.66,4.22,4.22,0,0,1,0-8.43A3.92,3.92,0,0,1,204.4,250v-1.24a.42.42,0,0,1,.83,0Zm-.83,3.81a3.17,3.17,0,1,0-3.16,3.39A3.28,3.28,0,0,0,204.4,252.58Z" transform="translate(-9.89 -43.91)"/><path class="q" d="M213.38,255a.41.41,0,0,1,.59,0,4.49,4.49,0,0,0,2.58,1,2.55,2.55,0,0,0,1.6-.52,1.28,1.28,0,0,0,.64-1,1.31,1.31,0,0,0-.61-1,4.13,4.13,0,0,0-1.79-.62l0,0a4.88,4.88,0,0,1-1.91-.65,1.77,1.77,0,0,1-.91-1.52,2.1,2.1,0,0,1,.91-1.65,3.58,3.58,0,0,1,2.07-.57,4.57,4.57,0,0,1,2.51.91.44.44,0,0,1,.12.59.42.42,0,0,1-.57.12,3.71,3.71,0,0,0-2.06-.84,2.59,2.59,0,0,0-1.61.48,1.27,1.27,0,0,0-.53,1,1,1,0,0,0,.48.84,4.23,4.23,0,0,0,1.72.59h0a5.83,5.83,0,0,1,2,.69,2.09,2.09,0,0,1,.94,1.72,2.12,2.12,0,0,1-1,1.7,3.44,3.44,0,0,1-2.1.67,5.1,5.1,0,0,1-3.12-1.2A.39.39,0,0,1,213.38,255Z" transform="translate(-9.89 -43.91)"/><path class="q" d="M222.26,248.76a.42.42,0,1,1,.83,0v4.59a2.6,2.6,0,1,0,5.19,0v-4.59a.43.43,0,0,1,.42-.42.42.42,0,0,1,.43.42v4.59a3.44,3.44,0,1,1-6.87,0Z" transform="translate(-9.89 -43.91)"/><path class="q" d="M233,246a.42.42,0,0,1,.41-.41.42.42,0,0,1,.43.41v.4a.42.42,0,1,1-.84,0Zm0,2.75a.41.41,0,0,1,.41-.41.41.41,0,0,1,.43.41v7.61a.42.42,0,0,1-.43.41.41.41,0,0,1-.41-.41Z" transform="translate(-9.89 -43.91)"/><path class="q" d="M240.52,256.73a.67.67,0,0,1-.14-.19L237.21,249a.43.43,0,0,1,.21-.54.41.41,0,0,1,.53.23l2.81,6.64,2.8-6.64a.42.42,0,0,1,.54-.23.41.41,0,0,1,.2.54l-3.15,7.47a.42.42,0,0,1-.1.2.36.36,0,0,1-.28.12h-.13l0,0S240.55,256.74,240.52,256.73Z" transform="translate(-9.89 -43.91)"/><path class="q" d="M247.85,246a.41.41,0,0,1,.41-.41.42.42,0,0,1,.43.41v.4a.44.44,0,0,1-.43.44.43.43,0,0,1-.41-.44Zm0,2.75a.4.4,0,0,1,.41-.41.41.41,0,0,1,.43.41v7.61a.42.42,0,0,1-.43.41.41.41,0,0,1-.41-.41Z" transform="translate(-9.89 -43.91)"/><path class="q" d="M257.82,252.72v-3.95a.43.43,0,0,1,.85,0V250a4,4,0,0,1,3.2-1.64,4.19,4.19,0,0,1,0,8.38,3.94,3.94,0,0,1-3.2-1.65v4.82a.43.43,0,0,1-.85,0Zm.85-.18a3.22,3.22,0,1,0,6.43,0,3.22,3.22,0,1,0-6.43-.13Z" transform="translate(-9.89 -43.91)"/><path class="q" d="M268.41,252.6a4.08,4.08,0,1,1,8.15-.31h0v0a.39.39,0,0,1-.41.38h-6.92A3.32,3.32,0,0,0,272.5,256a3.19,3.19,0,0,0,2.72-1.53.4.4,0,0,1,.55-.14.44.44,0,0,1,.14.58,4,4,0,0,1-3.41,1.91A4.14,4.14,0,0,1,268.41,252.6Zm.87-.68h6.39a3.26,3.26,0,0,0-3.17-2.73A3.29,3.29,0,0,0,269.28,251.92Z" transform="translate(-9.89 -43.91)"/><path class="q" d="M285.51,251.8a2.6,2.6,0,0,0-2.6-2.6,2.66,2.66,0,0,0-2.62,2.6v4.65a.33.33,0,0,1-.08.19.37.37,0,0,1-.31.15h-.1a.45.45,0,0,1-.28-.22.06.06,0,0,1,0-.05,0,0,0,0,0,0,0v-7.7a.4.4,0,1,1,.8,0v.81a3.43,3.43,0,0,1,6,2.2v4.58a.42.42,0,0,1-.83,0Z" transform="translate(-9.89 -43.91)"/><path class="q" d="M296.44,255.16a4,4,0,0,1-3.24,1.63,4.22,4.22,0,0,1,0-8.43,4,4,0,0,1,3.24,1.65v-4.85a.42.42,0,0,1,.43-.41.42.42,0,0,1,.41.41v11.22a.41.41,0,0,1-.41.41.42.42,0,0,1-.43-.41Zm0-2.43v-.27a3.36,3.36,0,1,0,0,.27Z" transform="translate(-9.89 -43.91)"/><path class="q" d="M308.12,248.77v7.61a.42.42,0,0,1-.83,0v-1.25a3.93,3.93,0,0,1-3.16,1.66,4.22,4.22,0,0,1,0-8.43,3.92,3.92,0,0,1,3.16,1.65v-1.24a.42.42,0,0,1,.83,0Zm-.83,3.81a3.17,3.17,0,1,0-3.16,3.39A3.29,3.29,0,0,0,307.29,252.58Z" transform="translate(-9.89 -43.91)"/><path class="q" d="M317.55,251.8a2.61,2.61,0,0,0-2.6-2.6,2.66,2.66,0,0,0-2.62,2.6v4.65a.41.41,0,0,1-.08.19.37.37,0,0,1-.31.15h-.11a.43.43,0,0,1-.27-.22.06.06,0,0,1,0-.05,0,0,0,0,0,0,0v-7.7a.41.41,0,0,1,.42-.41.4.4,0,0,1,.39.41v.81a3.42,3.42,0,0,1,6,2.2v4.58a.41.41,0,0,1-.82,0Z" transform="translate(-9.89 -43.91)"/><path class="q" d="M325,248.77a.44.44,0,0,1-.41.42h-1.08v6.14a.65.65,0,0,0,.62.62.49.49,0,0,1,.43.43.46.46,0,0,1-.43.41,1.42,1.42,0,0,1-1.48-1.46v-6.14h-1.05c-.42,0-.42-.21-.42-.42s0-.41.42-.41h1.05v-3.13a.43.43,0,0,1,.41-.41.46.46,0,0,1,.45.41v3.13h1.08A.44.44,0,0,1,325,248.77Z" transform="translate(-9.89 -43.91)"/><path class="q" d="M42.21,269.4a.4.4,0,0,1,.41-.41.41.41,0,0,1,.41.41V274a2.6,2.6,0,1,0,5.2,0v-4.6a.42.42,0,0,1,.41-.41.41.41,0,0,1,.43.41V274a3.43,3.43,0,1,1-6.86,0Z" transform="translate(-9.89 -43.91)"/><path class="q" d="M58.54,272.45a2.6,2.6,0,0,0-2.6-2.6,2.64,2.64,0,0,0-2.62,2.6v4.65a.34.34,0,0,1-.09.19.36.36,0,0,1-.31.15h-.1a.43.43,0,0,1-.27-.22.06.06,0,0,1,0-.05.07.07,0,0,0,0,0v-7.69a.41.41,0,1,1,.81,0v.81a3.42,3.42,0,0,1,6,2.2V277a.41.41,0,0,1-.41.41.4.4,0,0,1-.41-.41Z" transform="translate(-9.89 -43.91)"/><path class="q" d="M62.46,273.24a4.08,4.08,0,0,1,8.15-.31V273a.39.39,0,0,1-.41.38H63.28a3.32,3.32,0,0,0,3.27,3.24,3.17,3.17,0,0,0,2.72-1.54.4.4,0,0,1,.55-.13.43.43,0,0,1,.14.58,4,4,0,0,1-3.41,1.91A4.15,4.15,0,0,1,62.46,273.24Zm.87-.67h6.39a3.27,3.27,0,0,0-3.17-2.74A3.3,3.3,0,0,0,63.33,272.57Z" transform="translate(-9.89 -43.91)"/><path class="q" d="M78.11,275.69a.41.41,0,0,1,.59-.06,4.49,4.49,0,0,0,2.58,1,2.55,2.55,0,0,0,1.6-.52,1.29,1.29,0,0,0,.64-1,1.35,1.35,0,0,0-.6-1,4.38,4.38,0,0,0-1.79-.62h0a4.73,4.73,0,0,1-1.91-.66,1.76,1.76,0,0,1-.91-1.51,2.09,2.09,0,0,1,.91-1.65,3.6,3.6,0,0,1,2.07-.57,4.57,4.57,0,0,1,2.51.91.44.44,0,0,1,.12.59.42.42,0,0,1-.57.12,3.65,3.65,0,0,0-2.06-.85,2.54,2.54,0,0,0-1.6.48,1.27,1.27,0,0,0-.54,1,1,1,0,0,0,.48.84,4.23,4.23,0,0,0,1.72.59h0a5.83,5.83,0,0,1,2.05.69,2.09,2.09,0,0,1,.94,1.72,2.14,2.14,0,0,1-1,1.7,3.44,3.44,0,0,1-2.1.67,5.1,5.1,0,0,1-3.11-1.2A.39.39,0,0,1,78.11,275.69Z" transform="translate(-9.89 -43.91)"/><path class="q" d="M86.56,273.24a4.08,4.08,0,0,1,8.16-.31V273a.39.39,0,0,1-.41.38H87.39a3.32,3.32,0,0,0,3.27,3.24,3.17,3.17,0,0,0,2.72-1.54.4.4,0,0,1,.55-.13.43.43,0,0,1,.14.58,4,4,0,0,1-3.41,1.91A4.15,4.15,0,0,1,86.56,273.24Zm.88-.67h6.38a3.25,3.25,0,0,0-3.16-2.74A3.29,3.29,0,0,0,87.44,272.57Z" transform="translate(-9.89 -43.91)"/><path class="q" d="M109.71,272.45a2.66,2.66,0,0,0-2.62-2.62,2.62,2.62,0,0,0-2.6,2.62v4.65l0,0v0a.43.43,0,0,1-.2.22.54.54,0,0,1-.21.05H104l0,0a.24.24,0,0,1-.1-.05.05.05,0,0,1,0,0l-.06,0s0,0,0,0l0,0a.1.1,0,0,0,0,0,.06.06,0,0,0,0-.05v-4.68a2.6,2.6,0,1,0-5.2,0v4.6a.37.37,0,0,1-.19.32.19.19,0,0,1-.1.05.08.08,0,0,1-.07,0H98a.44.44,0,0,1-.35-.31v-7.71A.4.4,0,0,1,98,269a.39.39,0,0,1,.41.39v.81a3.37,3.37,0,0,1,2.6-1.2,3.4,3.4,0,0,1,3,1.79,3.48,3.48,0,0,1,3-1.79,3.43,3.43,0,0,1,3.43,3.42v4.6a.41.41,0,0,1-.42.39.4.4,0,0,1-.39-.39Z" transform="translate(-9.89 -43.91)"/><path class="q" d="M121.08,269.42V277a.42.42,0,0,1-.83,0v-1.26a3.92,3.92,0,0,1-3.17,1.67,4.22,4.22,0,0,1,0-8.43,3.9,3.9,0,0,1,3.17,1.65v-1.24a.42.42,0,0,1,.83,0Zm-.83,3.81a3.17,3.17,0,1,0-3.17,3.39A3.29,3.29,0,0,0,120.25,273.23Z" transform="translate(-9.89 -43.91)"/><path class="q" d="M124.67,266.67a.42.42,0,0,1,.41-.42.43.43,0,0,1,.44.42v.39a.45.45,0,0,1-.44.45.44.44,0,0,1-.41-.45Zm0,2.75a.41.41,0,0,1,.41-.41.41.41,0,0,1,.44.41V277a.43.43,0,0,1-.44.41.42.42,0,0,1-.41-.41Z" transform="translate(-9.89 -43.91)"/><path class="q" d="M135.51,272.45a2.59,2.59,0,0,0-2.6-2.6,2.64,2.64,0,0,0-2.61,2.6v4.65a.42.42,0,0,1-.09.19.37.37,0,0,1-.31.15h-.1a.48.48,0,0,1-.28-.22.11.11,0,0,1,0-.05.07.07,0,0,0,0,0v-7.69a.41.41,0,1,1,.81,0v.81a3.42,3.42,0,0,1,6,2.2V277a.42.42,0,0,1-.83,0Z" transform="translate(-9.89 -43.91)"/><path class="q" d="M139.43,273.24a4.08,4.08,0,0,1,8.16-.31V273a.39.39,0,0,1-.41.38h-6.92a3.32,3.32,0,0,0,3.27,3.24,3.17,3.17,0,0,0,2.72-1.54.4.4,0,0,1,.55-.13.43.43,0,0,1,.14.58,4,4,0,0,1-3.41,1.91A4.15,4.15,0,0,1,139.43,273.24Zm.88-.67h6.39a3.27,3.27,0,0,0-3.17-2.74A3.3,3.3,0,0,0,140.31,272.57Z" transform="translate(-9.89 -43.91)"/><path class="q" d="M155.3,272.23a11.73,11.73,0,0,1,.82-4.74,3.3,3.3,0,0,1,3-2.15.49.49,0,0,1,0,1,2.32,2.32,0,0,0-2.14,1.6,13.32,13.32,0,0,0,0,8.64,2.32,2.32,0,0,0,2.14,1.6.47.47,0,0,1,.46.48.46.46,0,0,1-.46.48h0a3.23,3.23,0,0,1-3-2.15A11.65,11.65,0,0,1,155.3,272.23Z" transform="translate(-9.89 -43.91)"/><path class="q" d="M162.32,279.9a.65.65,0,0,0,.62-.63v-9.83a.43.43,0,0,1,.43-.43.42.42,0,0,1,.41.43v9.83a1.44,1.44,0,0,1-1.46,1.46.4.4,0,0,1-.42-.4A.42.42,0,0,1,162.32,279.9Zm.65-13.23a.45.45,0,0,1,.43-.42.42.42,0,0,1,.41.42v.39a.43.43,0,0,1-.41.43.45.45,0,0,1-.43-.43Z" transform="translate(-9.89 -43.91)"/><path class="q" d="M167.27,273.24a4.08,4.08,0,0,1,8.16-.31V273a.39.39,0,0,1-.41.38H168.1a3.32,3.32,0,0,0,3.27,3.24,3.17,3.17,0,0,0,2.72-1.54.4.4,0,0,1,.55-.13.43.43,0,0,1,.14.58,4,4,0,0,1-3.41,1.91A4.15,4.15,0,0,1,167.27,273.24Zm.88-.67h6.39a3.23,3.23,0,0,0-6.39,0Z" transform="translate(-9.89 -43.91)"/><path class="q" d="M178.18,269.4a.42.42,0,0,1,.83,0V274a2.6,2.6,0,1,0,5.19,0v-4.6a.42.42,0,0,1,.42-.41.41.41,0,0,1,.43.41V274a3.44,3.44,0,1,1-6.87,0Z" transform="translate(-9.89 -43.91)"/><path class="q" d="M195.65,275.81a4,4,0,0,1-3.24,1.63,4.22,4.22,0,0,1,0-8.43,4,4,0,0,1,3.24,1.65v-4.85a.42.42,0,1,1,.84,0V277a.42.42,0,0,1-.41.41.42.42,0,0,1-.43-.41Zm0-2.43v-.28a3.36,3.36,0,1,0,0,.28Z" transform="translate(-9.89 -43.91)"/><path class="q" d="M200.27,266.67a.43.43,0,0,1,.85,0v.39a.43.43,0,1,1-.85,0Zm0,2.75a.43.43,0,0,1,.85,0V277a.43.43,0,0,1-.85,0Z" transform="translate(-9.89 -43.91)"/><path class="q" d="M217,275.81a4,4,0,0,1-3.24,1.63,4.22,4.22,0,0,1,0-8.43,4,4,0,0,1,3.24,1.65v-4.85a.42.42,0,1,1,.84,0V277a.42.42,0,0,1-.41.41A.42.42,0,0,1,217,277Zm0-2.43v-.28a3.36,3.36,0,1,0,0,.28Z" transform="translate(-9.89 -43.91)"/><path class="q" d="M220.75,273.24a4.08,4.08,0,0,1,8.15-.31V273a.38.38,0,0,1-.41.38h-6.92a3.32,3.32,0,0,0,3.27,3.24,3.17,3.17,0,0,0,2.72-1.54.4.4,0,0,1,.55-.13.43.43,0,0,1,.14.58,4,4,0,0,1-3.41,1.91A4.15,4.15,0,0,1,220.75,273.24Zm.87-.67H228a3.27,3.27,0,0,0-3.17-2.74A3.3,3.3,0,0,0,221.62,272.57Z" transform="translate(-9.89 -43.91)"/><path class="q" d="M231.47,269.44a.41.41,0,0,1,.43-.41.4.4,0,0,1,.39.41v1.86a2.25,2.25,0,0,1,.12-.21,4.07,4.07,0,0,1,3.38-2.06.41.41,0,0,1,.41.41.42.42,0,0,1-.41.41,3,3,0,0,0-2.45,1.38,7.54,7.54,0,0,0-1,2,.23.23,0,0,0,0,.14V277a.4.4,0,0,1-.39.41.41.41,0,0,1-.43-.41Z" transform="translate(-9.89 -43.91)"/><path class="q" d="M245,272.45a2.59,2.59,0,0,0-2.6-2.6,2.64,2.64,0,0,0-2.61,2.6v4.65a.42.42,0,0,1-.09.19.37.37,0,0,1-.31.15h-.1a.48.48,0,0,1-.28-.22.11.11,0,0,1,0-.05.07.07,0,0,0,0,0v-7.69a.41.41,0,1,1,.81,0v.81a3.42,3.42,0,0,1,6,2.2V277a.42.42,0,0,1-.83,0Z" transform="translate(-9.89 -43.91)"/><path class="q" d="M249.58,266.67a.43.43,0,0,1,.85,0v.39a.43.43,0,1,1-.85,0Zm0,2.75a.43.43,0,0,1,.85,0V277a.43.43,0,0,1-.85,0Z" transform="translate(-9.89 -43.91)"/><path class="q" d="M253.8,273.24a4.08,4.08,0,0,1,8.16-.31V273a.39.39,0,0,1-.42.38h-6.91a3.32,3.32,0,0,0,3.27,3.24,3.16,3.16,0,0,0,2.71-1.54.41.41,0,0,1,.56-.13.44.44,0,0,1,.13.58,4,4,0,0,1-3.4,1.91A4.15,4.15,0,0,1,253.8,273.24Zm.88-.67h6.38a3.26,3.26,0,0,0-3.16-2.74A3.29,3.29,0,0,0,254.68,272.57Z" transform="translate(-9.89 -43.91)"/><path class="q" d="M264.52,269.44A.41.41,0,0,1,265,269a.4.4,0,0,1,.39.41v1.86a2.25,2.25,0,0,1,.12-.21,4.07,4.07,0,0,1,3.38-2.06.41.41,0,0,1,.41.41.42.42,0,0,1-.41.41,3.06,3.06,0,0,0-2.45,1.38,7.88,7.88,0,0,0-1,2,.23.23,0,0,0,0,.14V277a.4.4,0,0,1-.39.41.41.41,0,0,1-.43-.41Z" transform="translate(-9.89 -43.91)"/><path class="q" d="M284.7,269.42V277a.41.41,0,1,1-.82,0v-1.26a4,4,0,0,1-3.17,1.67,4.22,4.22,0,0,1,0-8.43,3.93,3.93,0,0,1,3.17,1.65v-1.24a.41.41,0,1,1,.82,0Zm-.82,3.81a3.18,3.18,0,1,0-3.17,3.39A3.29,3.29,0,0,0,283.88,273.23Zm-2.76-5.82-1.37-1.33a.46.46,0,0,1-.19-.31c0-.17.39-.39.72-.39a.55.55,0,0,1,.48.31l1.07,1.6a.4.4,0,0,1,.07.19c0,.08-.11.15-.23.15A.68.68,0,0,1,281.12,267.41Z" transform="translate(-9.89 -43.91)"/><path class="q" d="M293.58,266.62l-1.71,1a.35.35,0,0,1-.2.07.41.41,0,0,1-.36-.2.39.39,0,0,1,.15-.57l2.32-1.41a.43.43,0,0,1,.57.15.49.49,0,0,1,0,.31V277a.41.41,0,0,1-.41.41.42.42,0,0,1-.41-.41Z" transform="translate(-9.89 -43.91)"/><path class="q" d="M301.29,265.39a2.51,2.51,0,0,1,1.48,4.53,3.9,3.9,0,1,1-3,0,2.55,2.55,0,0,1-1-2A2.49,2.49,0,0,1,301.29,265.39Zm0,11.23a3.09,3.09,0,1,0-3.08-3.09A3.07,3.07,0,0,0,301.29,276.62Zm0-7a1.7,1.7,0,0,0,1.68-1.7,1.68,1.68,0,0,0-3.35,0A1.69,1.69,0,0,0,301.29,269.59Z" transform="translate(-9.89 -43.91)"/><path class="q" d="M309.63,268.49a.86.86,0,1,1-.86.86A.85.85,0,0,1,309.63,268.49Zm0,7.23a.86.86,0,1,1-.86.86A.85.85,0,0,1,309.63,275.72Z" transform="translate(-9.89 -43.91)"/><path class="q" d="M319.25,275h-6.57a.35.35,0,0,1-.26-.08.4.4,0,0,1-.05-.59l7-8.67v0a.4.4,0,0,1,.59-.05.66.66,0,0,1,.14.2.35.35,0,0,0,0,.07v8.32h.81a.41.41,0,1,1,0,.82h-.81V277a.42.42,0,0,1-.43.41.42.42,0,0,1-.41-.41Zm0-.82v-7.06l-5.7,7.06Z" transform="translate(-9.89 -43.91)"/><path class="q" d="M323.76,276.7l5.62-5.08a3.08,3.08,0,0,0-2.06-5.38,3.14,3.14,0,0,0-2.1.79l-.59.53a.41.41,0,0,1-.56-.6l.58-.55a4.05,4.05,0,0,1,2.67-1,4,4,0,0,1,3.92,3.93,4,4,0,0,1-1.29,2.92l-4.82,4.36h5.7a.42.42,0,0,1,.41.43.42.42,0,0,1-.41.41h-6.78a.38.38,0,0,1-.31-.12A.44.44,0,0,1,323.76,276.7Z" transform="translate(-9.89 -43.91)"/><path class="q" d="M334.51,279.11h0a.47.47,0,0,1-.46-.48.48.48,0,0,1,.46-.48,2.31,2.31,0,0,0,2.14-1.6,13.32,13.32,0,0,0,0-8.64,2.31,2.31,0,0,0-2.14-1.6.49.49,0,0,1,0-1,3.29,3.29,0,0,1,3,2.15,13.92,13.92,0,0,1,0,9.47A3.23,3.23,0,0,1,334.51,279.11Z" transform="translate(-9.89 -43.91)"/><path class="u" d="M328.06,150.08a38.5,38.5,0,0,0-.43-13c-1.77-9.28-6.21-18.3-11.93-24.29l.22-.23c1.81-1.85,3.41-3.59,4.95-5.28s3-3.28,4.45-4.74a30.78,30.78,0,0,1,15.06-8.91l.34-.09c.9-.22,1.86-.42,2.85-.58l.37-.07.77-.12c1.18-.17,2.44-.31,3.73-.41l1.71-.13L348.94,91A17.63,17.63,0,0,0,339,86.42a38.56,38.56,0,0,0-13,.43c-9.27,1.77-18.29,6.21-24.29,11.93l-.22-.22c-1.85-1.81-3.59-3.41-5.28-5s-3.26-3-4.71-4.42l0,0a30.86,30.86,0,0,1-8.92-15.06c0-.11-.05-.22-.08-.34-.22-.9-.42-1.86-.59-2.85l-.06-.37-.12-.78c-.17-1.17-.31-2.43-.41-3.72l-.13-1.71-1.22,1.21a17.63,17.63,0,0,0-4.59,9.94,38.56,38.56,0,0,0,.43,13c1.77,9.27,6.21,18.29,11.93,24.29l-.23.22c-.24.25-.49.52-.75.78l-.49.51-.48.51c-.3.32-.61.64-.93,1-.8.85-1.55,1.68-2.29,2.48-1.54,1.69-3,3.28-4.46,4.74a30.85,30.85,0,0,1-14.72,8.83l-.33.09-.68.16-.69.16-1.45.28c-.74.13-1.52.25-2.31.36l-.81.1-2.12.2-1.72.13,1.22,1.22a17.63,17.63,0,0,0,9.94,4.59,38.5,38.5,0,0,0,13-.43c9.28-1.77,18.3-6.21,24.29-11.93l.23.22.78.76.51.49.5.48,1,.93L307.2,132c1.68,1.53,3.26,3,4.71,4.43l0,0a31.26,31.26,0,0,1,8,11.91c.07.2.14.4.2.6.21.61.4,1.24.58,1.88.09.33.18.66.26,1s.21.92.31,1.39c.05.23.1.48.14.72s.09.49.13.74.05.25.07.38l.12.77c.17,1.17.31,2.43.41,3.72l.13,1.72,1.22-1.22A17.63,17.63,0,0,0,328.06,150.08Zm-5.57,5.6-.12-.78-.06-.38c-.05-.26-.09-.51-.14-.76s-.09-.49-.14-.73c-.1-.49-.21-1-.32-1.42s-.18-.68-.27-1c-.18-.66-.38-1.3-.58-1.92-.07-.21-.15-.41-.22-.62a32.12,32.12,0,0,0-8.14-12.2l0,0c-2.17-2.17-4.6-4.3-7.22-6.74q-.5-.45-1-.93l-.51-.48-.5-.48-.77-.75c-.09-.09-.18-.17-.26-.26l-.52-.51C289.42,138,264.36,143.33,255,134c.74-.06,1.46-.13,2.15-.21l.82-.1c.82-.1,1.6-.22,2.35-.36.51-.09,1-.19,1.47-.29l.71-.16.69-.17.34-.08c6.74-1.78,11-5,15.08-9,2.18-2.17,4.32-4.61,6.77-7.24.3-.33.61-.67.93-1l.48-.5.48-.51.75-.77.25-.26c.18-.17.35-.35.52-.52-12.28-12.28-17.66-37.34-8.32-46.68q.15,2,.42,3.78l.12.78.06.39c.18,1,.38,2,.6,2.9l.09.35c1.76,6.93,5,11.26,9.12,15.41l0,0c2.92,2.92,6.31,5.76,10,9.37l.26.26.52.51C314,87.61,339,82.24,348.38,91.57q-2,.17-3.78.42l-.78.12-.39.06c-1,.18-2,.38-2.9.6l-.35.09c-6.93,1.76-11.26,5-15.42,9.12-2.93,2.93-5.78,6.32-9.4,10l-.26.26-.51.52c12.28,12.28,17.65,37.34,8.32,46.68Q322.75,157.46,322.49,155.68Z" transform="translate(-9.89 -43.91)"/><path class="v" d="M348.38,91.57c-9.34-9.33-34.4-4-46.68,8.32C290.57,88.76,282,85,280.49,66.1c-9.34,9.34-4,34.4,8.32,46.68C277.68,123.91,274,132.5,255,134c9.34,9.34,34.4,4,46.68-8.32,11.13,11.13,19.72,14.85,21.21,33.79,9.33-9.34,4-34.4-8.32-46.68C325.72,101.65,329.44,93.06,348.38,91.57Zm-50.49,25a5.38,5.38,0,1,1,7.61,0A5.38,5.38,0,0,1,297.89,116.59Z" transform="translate(-9.89 -43.91)"/><path class="w" d="M309.7,110.32l4.89,2.46c11.13-11.13,14.85-19.72,33.79-21.21C321.79,86.63,309.7,110.32,309.7,110.32Z" transform="translate(-9.89 -43.91)"/><path class="x" d="M293.7,115.24l-4.89-2.46C277.68,123.91,274,132.5,255,134,281.61,138.93,293.7,115.24,293.7,115.24Z" transform="translate(-9.89 -43.91)"/><path class="y" d="M299.24,104.78l2.46-4.89C290.57,88.76,282,85,280.49,66.1,275.55,92.69,299.24,104.78,299.24,104.78Z" transform="translate(-9.89 -43.91)"/><path class="z" d="M304.16,120.78l-2.46,4.89c11.13,11.13,19.72,14.85,21.21,33.79C327.85,132.87,304.16,120.78,304.16,120.78Z" transform="translate(-9.89 -43.91)"/><path class="aa" d="M305.5,116.59a5.38,5.38,0,1,1,0-7.61A5.38,5.38,0,0,1,305.5,116.59Z" transform="translate(-9.89 -43.91)"/></svg>