<svg xmlns:svg="http://www.w3.org/2000/svg" xmlns="http://www.w3.org/2000/svg" version="1.1" width="539.8" height="357.8" viewBox="0 0 539.8 357.8">
  <g transform="translate(-143.45274,-118.43919)">
    <path d="m266 473.6c-6-3-8.1-7.9-7.5-17.9 1.3-22.5 24.3-46.9 56.4-59.7 10.3-4.1 10-3.8 13.4-14.7l3-9.5-6.3-6.5c-8.1-8.4-10.4-12.9-10.4-21.2 0-10.8 9-22.3 23.2-29.9 6.6-3.5 6.8-6.1 0.5-8.2-5.7-1.9-20.2-2-26.5-0.1-10.8 3.2-21.2 16.8-28.5 36.9-3.2 9-4.9 10.8-10.1 10.6-9.4-0.3-10.6-6.3-4.4-24.1 7.6-22.1 20.5-40.2 33.1-46.4 5.6-2.8 7.1-3.8 29.9-3.5 42.7 0.7 57 2.6 59.6 4.8 3.6 3.1 8.2 14 8.2 19.3 0 9.5-2.4 12.6-13.3 17-24.3 9.9-35.4 17.4-35.4 23.8 0 1.3 3.8 6.2 8.5 10.9 9.6 9.7 11.1 13.3 8.4 19.9-2.5 5.9-1.5 7.1 3.9 4.9 16.3-6.8 30.1-24.9 40.4-53.2 7.8-21.2 20.4-38.1 33.2-44.4 6.7-3.3 7-3.3 30.8-2.9 13.3 0.2 26.2 0.3 28.8 0.1 22.5-1.1 23-1.1 27.3 2.9 8.4 7.9 11.9 20.9 8.2 29.9-1.5 3.5-3.2 4.8-11.6 8.2-24.3 9.9-35.4 17.4-35.4 23.8 0 1.3 3.8 6.2 8.5 10.9 9.6 9.7 11.1 13.3 8.4 19.9-2.5 5.9-1.5 7.1 3.9 4.9 7.4-3.1 16.4-10.4 22.5-18.4 5.1-6.7 6.3-9.4 10-23.9 6.5-25.3 15.4-53.7 17.6-56.1 1.5-1.7 4-2.2 10.8-2.2 13.7 0 24.6 6.6 24.6 15 0 1.9-4.5 16.1-10 31.6-12.7 35.8-13.3 38.5-10.4 44.5 2 4 2.8 4.6 7.4 4.9 13.6 1 21.5-17.6 30.4-71.2 3-18.2 4-21.9 6.3-23.8 7-5.7 28.8 1 33.8 10.4 2.5 4.7-6.9 49.5-15.7 74.6-5.1 14.7-5 14-2.4 14 4.4 0 16.5-14.6 23.2-28.3 7.8-15.8 11.7-19.6 17-16.7 5.9 3.3 6.2 7 1.3 18.2-10.2 23.5-26.5 40.3-47.2 48.7-6.7 2.7-7.2 3.2-13 13.9-21.1 38.5-44.4 58.8-69.4 60.2-17.3 1-23.4-4.3-22.5-19.6 0.9-15 11.4-29.7 29.3-40.9 5.1-3.2 9.2-6.1 9.2-6.6 0-0.4-2.5-1.8-5.5-3.1-6.7-2.7-13.6-9.2-17-16-1.4-2.7-2.9-4.7-3.4-4.4-0.5 0.3-4.6 3.1-9.2 6.2-8.4 5.6-17.4 9.6-27.8 12.2-5.3 1.3-5.8 1.9-10.8 11.6-20.5 39.9-45 60.8-71.3 60.8-16.4 0-21.8-5.2-20.9-20 1.3-22.5 24.3-46.9 56.4-59.7 10.3-4.1 10-3.8 13.4-14.7l3-9.5-6.3-6.5c-8.1-8.4-10.4-12.9-10.4-21.2 0-10.8 9-22.3 23.2-29.9 6.6-3.5 6.8-6.1 0.5-8.2-5.7-1.9-20.2-2-26.5-0.1-10.6 3.2-20.4 15.6-27.9 35.4-1.7 4.6-4.2 9.8-5.4 11.7-1.3 1.9-4.6 7.4-7.5 12.3-10.1 17.5-26.3 30.1-46.8 36.4l-10.9 3.4-5.2 10c-15.9 31-35 51.1-55.1 58.1-9 3.1-23.5 3.3-29.5 0.4zm31.1-31.9c12.1-14.5 11-18.2-1.5-4.9-8.6 9.1-12 16.2-5.8 12.2 1.5-1 4.8-4.3 7.3-7.2zm142.5 0c12.1-14.5 11-18.2-1.5-4.9-8.6 9.1-12 16.2-5.8 12.2 1.5-1 4.8-4.3 7.3-7.2zm124.5 2.4c7.2-7.5 12.2-14.6 11.1-15.7-1.2-1.2-18.2 16.6-18.2 19.1 0 3 1.7 2.2 7.1-3.4zm-379.8-88.4c-15.4-2.7-29.4-13.2-35.5-26.8-2.8-6.2-3.6-9.9-4-19.9-0.8-17.6 2.2-30.5 21-90.9 12.4-39.7 12.6-41.3 8.2-45.6-3.2-3.2-3.8-3.3-15.2-2.9-9.1 0.3-12.1 0-13-1.3-3.3-5.4-2.2-20.5 2.1-27.8 2.8-4.8 5.7-5.5 21.6-5.4 25.3 0.2 43.4 9.2 47.5 23.5 1.9 6.7 3 2.5-19 73.3-20.5 66.2-21.5 71.8-15.3 84.5 10.1 20.7 36.2 11.8 51.5-17.7 5.9-11.4 8-18 21-66.8 9.7-36.5 11.2-40 17-40 1.3 0 4.1 2.3 6.3 5 4.4 5.5 7.8 6.3 10.1 2.5 3-4.8 7.2-1.5 7.2 5.8 0 3.9-18.8 78.4-29.4 116-4.7 16.8-8 26.3-10.1 29-6.7 8.7-20.6 8.2-26.6-1l-2.9-4.5-7.1 4.2c-10.6 6.4-23.6 8.8-35.5 6.7z" fill="#fd870a"/>
    <path d="m366.2 282.4c-16.3-0.7-17.4-1.9-9.2-9.8 2.8-2.7 6.5-8 8.2-11.7 3-6.6 5.8-22.6 4-22.6-0.5 0-5.6 9.6-11.3 21.2-12.1 24.7-10.2 23.4-31.6 22.1-24.3-1.5-28-6.2-11.1-14.2 6.4-3 10.4-7.6 10.4-12 0-1 2.8-7.7 6.2-14.9 7.7-16 11.3-29.5 11.2-42.1 0-15.8 2.2-14.5-24.7-14.6-30.6-0.1-47.9-3.8-56.3-11.8-4-3.9-10.2-13.7-10.2-16.4 0-2.1 6.7-4.8 17.4-6.9 2.2-0.4 5.1-2.5 6.9-4.9 3.1-4.1 5.8-5.3 17.5-7.7 4.3-0.9 5.1-1.6 5.8-5.1 1.2-5.7 1.5-5.8 7.5-1.9 5 3.3 6.3 3.6 20.9 4 18.9 0.5 26.5-0.8 45.3-8.2 13.2-5.2 15-5.6 21.9-4.8 9.7 1 17.7 3 23.1 5.7 4 2 5.4 2 16.9 0.4 20.8-2.9 57.9-2.6 69.8 0.6 21.8 5.9 34.5 16.5 44.6 37 6.3 12.9 9.3 22.2 10.8 34.5 0.9 6.8 10.5 26.4 17.5 35.6 7 9.2 11.1 20.7 11.6 32.2l0.4 10.9-3.6 1.4c-2 0.7-10.5 1.5-19 1.6-19.8 0.3-21.3-1-12.2-10.2l6-6.1-6.7-4.9c-8.9-6.6-27.5-24.9-30.5-30-2.8-4.8-3.1-4.9-6.5-1.2-6.3 6.8-8.2 14.1-8.8 34.4l-0.5 19.1-24.3 0c-21 0-24.4-0.3-25-2-1.1-2.9 3.4-8.3 9.4-11.1 6.6-3 8.1-7.8 7.5-23.9-0.5-13.9-3.1-18.5-15.9-28.1-20.3-15.2-32.1-18.4-49.2-13.3-9.3 2.8-9.9 4.3-8.9 23.8 0.8 15.9-1 42.3-3.4 49.7-2.6 7.7-2.9 7.8-31.7 6.5z" fill="#3f3f40"/>
  </g>
</svg>
