<svg version="1" xmlns="http://www.w3.org/2000/svg" width="933.333" height="933.333" viewBox="0 0 700.000000 700.000000"><path d="M193.9 7.8c-8.1 8.5-9 9.6-13.6 16.2-9 13.2-17.7 36.1-19.9 52.5-.3 2.7-.8 5.3-1 5.6-2.4 4.1-2.4 68.9.1 72.9.2.3.6 2.9 1 5.9.4 3 .9 6.3 1.1 7.5.2 1.2.6 3.3.9 4.9 3.2 17.3 11.4 47.7 15.5 57.2.4 1.1 2.7 6.9 5 13 5.6 14.5 18.3 40.5 26 53 3.4 5.5 6.9 11.3 7.8 12.8 3.8 6.4 18.6 25.8 25 32.6 6.7 7.2 6.8 7.5 2.7 11.6-5.3 5.5-25.9 27.8-35 38-26.6 29.6-46.4 49-60.8 59.5-2.7 1.9-6 4.4-7.5 5.6-4.2 3.2-17 10.8-25.7 15.2-7.3 3.6-25.3 11.1-27.9 11.6-.6.2-4.2 1.2-8.1 2.4-10.2 3-21.3 5.5-34.5 7.7-5.4 1-7.6 1.3-21.9 3-1.9.3-7.5.7-12.5 1.1-5 .3-9.3.8-9.5 1-1.4 1.4 20.4 20.2 27.6 23.9 2.1 1 4.5 2.4 5.3 3.1 1.8 1.4 20.4 8.6 28 10.8 8.2 2.4 15.1 3.6 30.5 5.5 7.2.9 49.2.7 53.2-.2 1.2-.3 4.8-.8 8-1.2 5.4-.6 20-2.9 25.1-4 1.2-.3 3.2-.7 4.3-1 7.5-1.6 20.6-5.1 27.9-7.3 4.7-1.4 9-2.7 9.5-2.8 1.3-.3 20.4-7.2 23-8.3 1.1-.5 4-1.7 6.5-2.7 6.9-2.7 31.7-14.9 39.5-19.3 3.9-2.2 8.6-4.9 10.5-6 3.5-1.9 25.9-17.5 30.1-20.8 7.2-5.9 16.6-14 17.9-15.6 1.6-1.9 2.1-1.5 19.5 15.2 3.3 3.2 9.2 8.6 13 12.1 57.1 51.8 75.9 73.4 91.5 105 11.4 23.1 20 53.4 23.5 83 .3 3 .8 6.6 1 8 .2 1.4.7 7 1 12.5.4 5.5.9 10.2 1.1 10.4 1.1 1.2 20.4-20.4 20.4-22.8 0-.6.4-1.1.8-1.1 1.3 0 10.1-17.5 12.9-25.5 2.1-6 3.9-12 5.8-20 .7-2.6 2.2-12.4 3.2-20 1.5-11.9.8-53-1.1-63-.3-1.8-1.4-8.8-2-14-.5-3.4-2.3-11.8-5.7-26.5-6.6-28.3-21.1-65.4-36.3-93-5.5-9.9-21.3-34.5-23.9-37.2-.7-.7-2.3-2.8-3.6-4.6-1.2-1.8-5.6-7.1-9.7-11.9-4.1-4.8-7.4-9-7.4-9.4 0-.4 2.8-3.6 6.2-7.1 5.2-5.3 23.8-25.5 42.8-46.3 18.2-20 40.6-40.7 56.5-52.1 26-18.7 62.4-32.9 97.4-38 2.5-.4 5.3-.8 6.3-1 7.1-1.2 13.9-2 27.8-2.9 5.2-.4 9.7-.9 10-1.2.5-.5-12.1-12.8-17.5-17-12.1-9.2-33.9-19.2-48-21.9-1.1-.2-3.1-.6-4.5-.9-14.4-3.3-28.5-4.4-50.5-4-12.1.2-23.3.6-25 .9-1.6.2-6.8 1-11.5 1.6-35.2 4.7-75.3 17-109.8 33.6-7.3 3.5-13.7 6.4-14.2 6.4-.6 0-1 .4-1 1 0 .5-.4 1-.9 1-2.2 0-38.2 22.9-43.6 27.7-1.2 1-4.1 3.4-6.5 5.3-4.2 3.2-9.9 8.2-14.1 12.1-1.8 1.8-.7 2.7-20.1-15.6-2.9-2.8-8.5-8-12.3-11.5-3.9-3.6-12.5-11.5-19-17.5-21.9-20.1-36-34.6-50.4-52-3.3-4-15-22.2-19.4-30.1-9.8-18-18.6-44.2-23.1-68.9-.3-1.7-.8-3.9-1-5-.6-3.2-2.7-18.9-3.1-24-.6-6.1-1.8-20-1.8-21.3 0-.6-.1-1.2-.2-1.2s-3.5 3.5-7.6 7.8zM360.6 313c10.2 3.3 17.6 9 22.4 17.4 3.2 5.8 6 16.1 5.5 20.4-.2 1.5-.6 4.3-.8 6.2-.2 2-1.3 5.6-2.4 8-6.4 14.1-19.2 22.8-34.1 23.2-11.6.2-20.5-3.3-28.3-11.2-12.9-13.1-14.9-32.5-5-48.2 4.8-7.5 15.1-14.7 23.5-16.2 1.6-.3 3-.6 3.1-.8.8-.8 12.7.1 16.1 1.2z"/></svg>