<svg xmlns="http://www.w3.org/2000/svg" xmlns:xlink="http://www.w3.org/1999/xlink" viewBox="0 0 263.603 177.794"><style>.B{fill:#bdaf99}.C{fill:#e6d5ba}.D{fill:none}.E{stroke-miterlimit:10}.F{stroke:#000}.G{stroke-width:1.915}.H{fill:#615441}.I{fill:#4d4233}.J{stroke-linejoin:round}.K{stroke-linecap:round}.L{stroke-width:1.058}.M{stroke-width:.957}></style><path d="M184.303 169.794l-.42-.26c.93-1.34 2.365-2.585 4.356-3.313 2.872-2.968.852-18.727-3.504-21.705-4.347-2.968-10.934-3.332-17.722-6.625-2.365-1.14-4.442-2.94-6.146-4.797 0 0 14.58-4.95 25.83-1.6 5.505 9.814 11.403 14.285 12.006 17.11.594 2.834-3.236 19.1-5.783 21.188-2.557 2.078-8.617 0-8.617 0" class="C"/><path d="M198.703 148.606c-.603-2.824-6.5-7.295-12.006-17.11-11.25-3.35-25.83 1.6-25.83 1.6-3.207-3.495-5.113-7.21-5.113-7.21l17.837-14.648s19.215 7.113 18.9 9.766c-.325 2.652-.536 8.492.632 11.67 1.168 3.188 7.324 11.154 11.89 13.375-5.63 15.395-7.114 25.16-7.85 26.33-1.063 1.063-3.188 3.82-6.156 4.356-2.135.383-7.545-.43-8.282-2.336-.43-1.1-.086-3.064 1.16-4.864l.42.26s6.06 2.078 8.617 0c2.547-2.078 6.376-18.354 5.783-21.188" class="B"/><path d="M183.882 169.536c-1.245 1.8-1.59 3.763-1.16 4.864.737 1.905 6.147 2.72 8.282 2.336 2.968-.536 5.093-3.294 6.156-4.356.737-1.168 2.22-10.934 7.85-26.33-4.567-2.22-10.723-10.187-11.89-13.375-1.168-3.18-.957-9.02-.632-11.67.316-2.652-18.9-9.766-18.9-9.766l-17.837 14.648s1.905 3.715 5.113 7.21c1.704 1.857 3.782 3.657 6.146 4.797 6.788 3.294 13.375 3.657 17.722 6.625 4.356 2.978 6.376 18.737 3.504 21.705-1.99.728-3.428 1.972-4.356 3.313z" class="D E F G"/><g class="B"><path d="M253.554 149.047c-.92-.66-2.058-3.255-3.724-6.51l.058-.03s8.128.364 6.223-4.308c-1.197-2.94-3.504-6.348-5.955-9.65l1.99-1.77c3.533 4.74 7.468 9.402 9.708 10.148.957 4.864.48 8.694-.64 10.206-1.12 1.522-5.103 3.753-7.66 1.915"/><path d="M213.036 76.034l1.58 1.532c6.865 7.095 14.936 23.4 17.875 29.355 3.035 6.146 12.13 9.02 12.13 9.02a209.16 209.16 0 0 0 7.525 10.838l-2 1.77-6.855-9.02c-1.618-2.27-9.7-3.6-12.56-6.702s-6.702-19.752-18.076-36.382zM189.34 57.757c-.412-2.9-.25-9.555-.25-9.555l-1.513.2c.402-6.693.153-15.5-7.908-22.7l.47-.842c5.544 3.18 8.856 8.5 9.785 12.446 2.192 9.325-.44 13.414-.584 20.45"/><path d="M189.1 48.202s-.163 6.645.25 9.555l-.01.613-1.494-.814c-.996-1.618-.508-4.97-.26-9.144l1.513-.21"/></g><path d="M187.578 48.412c-.25 4.174-.737 7.525.258 9.143l-7.238-3.944c1.523-1.685 2.442-3.437 3.016-4.7l3.964-.498" class="C"/><g class="B"><path d="M183.69 43.692c.91.65 1.226 2.164.373 4.193l-.45 1.024-4.318.507c1.474-1.465 2.748-3.246 3.724-5.362z"/><path d="M176.76 51.524c.9-.613 1.752-1.312 2.537-2.106l4.318-.507c-.575 1.264-1.494 3.016-3.016 4.7z"/></g><path d="M176.76 51.524l-2.844-1.55 5.38-.556c-.785.795-1.637 1.494-2.537 2.106m-2.844-.964l2.844 1.845c-8.3 5.706-20.412 3.408-25.018-.473h.01c5.448 0 14.4-.616 22.164-1.372" class="C"/><path d="M86.263 127.198c6.932-3.17 17.51-7.2 32.6-11 29.623-7.487 53.913-1.226 56.833-.412l-.02.086c-.26.172-.546.354-.88.555l-.077-.125c-67.585 29.776-86.197 23.13-88.466 10.905" fill="#f5e2c6"/><path d="M179.296 49.418l-5.38.555-2.624-1.427c3.246.192 5.946-1.283 8.3-3.695 1.55-1.59 3.15-1.848 4.098-1.16l-.67.364c-.976 2.116-2.25 3.897-3.724 5.362" class="C"/><path d="M180.598 53.61c-2.413 2.71-6.328 5.266-12.734 5.438-7.133.192-13.5-2.863-16.764-8.348.22.01.43.038.64.057 4.606 4.873 16.717 6.472 25.018.766z" class="B"/><g class="C"><path d="M166.313 45.837l-.048-.03h.03c0 .01.01.02.02.03"/><path d="M179.67 25.702c8.062 7.21 8.3 16.018 7.908 22.7l-3.963.498c.182-.393.335-.747.45-1.024.852-2.03.536-3.542-.373-4.193-.948-.69-2.547-.43-4.098 1.16-2.355 2.413-5.055 3.887-8.3 3.696l-4.978-2.7c-.01-.01-.02-.02-.02-.03.44.048 5.41.48 7.238-3.112.87-1.724-.326-4.433-2.24-5.266-1.915-.842-5.658-.428-6.137 2.808-.25 1.704.153 3.58 1.14 4.637h-.03l.048.495c.87 1.32 2.212 2.55 3.944 2.837.354.058.7.212 1.034.222l2.623 2.072c-7.774.756-16.716 1.43-22.164 1.43h-.01c-.21 0-.42-.635-.64-.644-1.293-2.164-2.116-5.004-2.308-7.867l.48-.175s3.916-19.624 26.492-19.864l.077-.352c1.56.47 2.987 1.082 4.3 1.85z"/></g><path d="M175.763 23.31c-22.576.24-26.492 19.8-26.492 19.8l-.48.03a14.92 14.92 0 0 1-.038-.67c-.354-10.53 7.956-19.99 20.23-20.345 2.5-.077 4.787.26 6.855.88z" fill="#fff0d9"/><path d="M121.05 51.964l3.325-.43v.02c0 3.12-4.13 8.06-4.378 8.358.105-.345 1.532-4.883 1.072-7.765zm-22.8-5.122c-.393 5.82-6.1 10.33-6.1 10.33s1.886-5.43 2.26-9.718c.622-.144 1.924-.402 3.83-.613" class="B"/><path d="M89.394 23.31l-.708.9-.125-.105c-3.112 1.6-8.425 2.556-11.173-.632C68.608 13.256 87.92 7.195 87.92 7.195l-.03-.287c1.274-.134 2.5-.2 3.543-.192 4.423.038 5.86 2.106 3.944 5.342-3.552 4.902-3.313 7.736-5.984 11.25" fill="#917d61"/><path d="M87.135 32.29c-6.568-5.802-16.477-1.38-17.406-17.913 1.12-1.36 3.993-4.308 6.98-5.314 2.288-.756 7.075-1.752 11.183-2.154l.03.287s-19.31 6.06-10.532 16.276c2.748 3.188 8.062 2.23 11.173.632l.124.105c-2.47 2.997-5.15 5.084-5.15 5.084s1.77.852 3.85 2.73z" class="H"/><path d="M174.73 116.293c-67.585 29.776-86.197 23.13-88.466 10.905-.957-5.15.996-11.298 3.4-16.123l-14.2 21.38.43.335-.43.306-.115.2c4.978 2.748 12.724 5.726 24.213 7.047 23.466 2.7 65.392-17.904 75.234-23.936zM45.238 100.065l5.658-1.762s-3.112 3.112-3.743 6.702l-.488.096c-.345-1.77-.9-3.428-1.676-4.902z" class="B"/><path d="M46.822 9.263c2.28-.613 6.374-1.14 11.16-.42L37.752 10.7s.544-.01.544-.02v-.01c2.47-1.254 6.037-1.762 8.526-1.408M189.33 58.37l.01-.613c.096.67.22 1.14.383 1.293.823.747 15.72 9.976 23.313 16.985l-.373.412c11.374 16.63 15.204 33.27 18.076 36.382s10.944 4.433 12.562 6.702c1.8 2.518 4.394 5.716 6.855 9.02 2.45 3.303 4.76 6.712 5.955 9.65 1.905 4.672-6.223 4.308-6.223 4.308l-.057.03c-2.94-5.763-7.516-13.605-15.424-16.467-12.37-4.462-38.134.64-58.72-10.206l.02-.086c-2.92-.814-27.2-7.076-56.833.412-15.1 3.8-25.678 7.84-32.6 11-.957-5.15.996-11.297 3.4-16.123l-14.2 21.38.43.335-.43.306-.115.2c-5.524-3.073-7.62-5.88-7.62-5.88-1.963.488-5.658 3.744-9.804 7.9l-.01-.01-32.552 11-.038-.038c5.85-5.8 14.055-12.963 15.836-15.28 3.954-5.14 7.257-16.965 5.496-25.918l.488-.096c.632-3.6 3.744-6.702 3.744-6.702l-5.66 1.762-.25.134c-.048-.096-.096-.2-.153-.297-4.864-.574-7.583-5.112-8.96-8.607l.03-.01c12.025-3.562 12.552-9.2 14.878-14.113 7.114-8.914 10.484-21.216 10.33-25.937l-.517-.01c.038-2.27-.766-5.275-3.562-7.085-5.16-3.35-12.743 0-14.227-.2s-5.84-6.587-12.954-8.07-14.38.852-14.38.852c-.517-2.04-1.532-3.284-.517-6.348.957-2.872 2.28-2.27 3.715-5.14 2.24-3.734 5.352-6.922 8.77-9.45l.086.115s7.18-3.954 10.053.115c0 0 15.797-8.014 31.834-1.55l.182-.2c.048.038.086.086.134.125.93 16.535 10.838 12.112 17.406 17.913l.25-.268c3.083 2.776 6.855 7.774 6.597 15.54 0 0 .144-.038.43-.105-.374 4.3-2.26 9.718-2.26 9.718s5.697-4.5 6.1-10.33c2.5-.268 6.003-.45 10.378-.153 5.993.412 10.82 2.47 12.17 5.342 0 0 .192-.03.546-.067l.02.182c.46 2.882-1.25 7.42-1.357 7.765.25-.297 4.378-5.237 4.378-8.358v-.02c7.056-.65 17.72-1.637 26.44-.833 3.274 5.486 9.774 8.54 16.907 8.35 6.405-.173 10.392-2.73 12.805-5.438l7.274 3.944z" class="C"/><path d="M23.772 84.584l1.915-.546.996-.326c.058-.01.105-.03.163-.058 12.38-4.27 20.833-14.15 23.6-23.217l.44.134s-2.71 20.738-19.062 26.1l-.01.555c-2.71-.057-6.597-.536-8.052-2.633" class="I"/><path d="M57.933 135.337c-8.004 8.023-17.665 19.426-19.637 20.814-4.787 3.35-6.702 5.505-12.207 5.266-3.705-.163-8.138-3.83-6.788-7.9.47-1.417 2.92-4.126 6.032-7.22l.038.038 32.553-11z" class="B"/><path d="M36.87 10.67c.105-.42 1.532-5.218 9.756-6.338C57.072 2.916 60.662-.043 62.232 1.288c3.073 2.623-3.112 7.42-3.112 7.42l-1.494.134c-4.787-.718-9.24-.19-11.518.42-2.49-.354-5.754.153-9.24 1.408" class="H"/><path d="M57.627 8.842c4.146.622 8.54 2.173 11.968 5.41l-.182.2C53.376 8 37.578 16.003 37.578 16.003c-2.872-4.07-10.053-.115-10.053-.115l-.086-.115c3.045-2.25 6.32-3.973 9.43-5.093-.01.01-.01.02-.01.02z" fill="#fff0d9"/><path d="M51.298 51.83c.402 2.614.105 5.563-.842 8.607-2.777 9.067-11.23 18.947-23.6 23.218 7.382-2.7 12.647-9.785 12.647-18.105 0-3.016-.69-5.87-1.924-8.406 3.964-.048 8.262-1.32 13.117-5.314.058-.038.125-.096.182-.144.153-.125.392-.048.43.144" fill="#29231b"/><path d="M37.722 86.508c5.256-1.474 9.603-5.007 13.06-9.335-2.327 4.912-2.853 10.55-14.878 14.113l-.03.01c-.92-2.298-1.254-4.155-1.254-4.155l-.01-.2c.268-.01 1.398-.067 3.092-.507z" class="B"/><path d="M25.687 84.038l.996-.326-.996.326" class="C"/><use xlink:href="#B" class="I"/><use xlink:href="#B" stroke="#4d4233" stroke-width=".18" class="D E"/><path d="M61.112 51.237l-.517-.01c.038-2.27-.766-5.275-3.562-7.085-5.16-3.35-12.743 0-14.227-.21s-5.84-6.587-12.954-8.07-14.38.852-14.38.852-1.99 1.99-3.83 4.47c-.814 1.11-1.54 3.016-2.097 4.778.536.25 2.068.9 4.3 1.408 2.25.517 5.218.91 8.598.622l.354-.03c4.07 3.763 8.54 5.352 12.676 5.812 8.033.9 14.792-2.46 14.792-2.46l.42.517c.058-.038.125-.096.182-.144.153-.124.392-.048.43.144.402 2.614.105 5.563-.842 8.607l.44.134s-2.7 20.738-19.062 26.1l-.01.555c1.61.038 2.796-.077 2.796-.077l-.01-.2c.268-.01 1.398-.067 3.092-.507l.02.077c5.256-1.475 9.603-5.007 13.06-9.335 7.113-8.914 10.484-21.216 10.33-25.937" class="H"/><use xlink:href="#C" class="I"/><use xlink:href="#C" stroke="#4d4233" stroke-width=".18" class="D E"/><path d="M22.5 48.843c4.787 6.3 9.65 8.138 14.036 8.29.345.01.69.02 1.034.01 1.235 2.537 1.924 5.4 1.924 8.406 0 8.32-5.266 15.405-12.647 18.105a.55.55 0 0 1-.163.058c-.325.115-.66.22-.996.326-1.733.507-3.57.785-5.467.785-7.238 0-13.548-3.992-16.83-9.91l.115-.067c5.563 7.86 33.5 8.06 32.64-15.233-8.138 1.11-14.285-8.06-14.285-8.06s-9.574 3.906-14.2-.077l-.26-.307c.383-.345.785-.67 1.197-.986.93.402 6.3 2.422 13.902-1.34" fill="#2a8a8a"/><path d="M6.96 55c.067-.086.182-.115.278-.067a23.67 23.67 0 0 0 5.227 2.087c.173.048.23.268.086.373-1.503 1.14-7.22 5.88-8.176 12.83-.03.24-.373.26-.412.02C3.437 67.398 2.767 60.504 6.96 55" fill="#43baba"/><path d="M3.39 74.914C1.838 72.147.957 68.95.957 65.55c0-5.716 2.5-10.848 6.443-14.38l.26.307c4.625 3.983 14.2.077 14.2.077s6.147 9.172 14.285 8.06c.87 23.294-27.076 23.093-32.638 15.233zm3.85-19.98c-.096-.048-.21-.02-.278.067-4.193 5.505-3.524 12.398-2.997 15.242.038.24.383.22.412-.02.957-6.95 6.674-11.7 8.176-12.83.144-.105.086-.326-.086-.374-2.528-.65-4.644-1.762-5.227-2.087" fill="#33a6a6"/><g class="D E F"><g class="G"><path d="M36.87 10.67c.105-.42 1.532-5.218 9.756-6.338C57.072 2.916 60.662-.043 62.232 1.288c3.073 2.623-3.112 7.42-3.112 7.42"/><path d="M25.687 84.038c-1.733.507-3.57.785-5.467.785-7.238 0-13.547-3.993-16.83-9.9C1.838 72.147.957 68.95.957 65.55c0-5.716 2.5-10.848 6.443-14.38.383-.345.785-.67 1.197-.986m28.973 6.96c1.235 2.537 1.924 5.4 1.924 8.406 0 8.32-5.266 15.405-12.647 18.105" class="J K"/></g><path d="M151.1 50.7c-8.722-.804-20.134.182-26.157.833l-3.6.43-.546.067c-1.35-2.872-6.175-4.93-12.17-5.342-4.376-.297-7.89-.115-10.378.153-1.905.21-3.207.47-3.83.613l-.43.105c.26-7.765-3.514-12.762-6.597-15.54-2.078-1.877-3.85-2.73-3.85-2.73s2.68-2.087 5.15-5.084c.24-.287.48-.594.708-.9 2.67-3.514 2.432-6.348 5.984-11.25 1.915-3.236.48-5.304-3.944-5.342-1.053-.01-2.27.058-3.543.192-4.107.402-8.894 1.398-11.183 2.154-2.987 1.005-5.86 3.954-6.98 5.314-.048-.038-.086-.086-.134-.124-3.427-3.236-7.822-4.787-11.968-5.41-4.787-.718-8.614-.192-10.893.42-2.49-.354-6.145.153-8.614 1.408v.01c-3.88 1.12-7.01 2.843-10.056 5.093-3.418 2.528-6.842 5.716-9.083 9.45-1.436 2.872-2.914 2.27-3.87 5.14-1.015 3.064-.078 4.308.44 6.348 0 0-2.03 1.99-3.87 4.47-.814 1.11-1.56 3.016-2.116 4.778-.68 2.183-1.1 4.155-1.1 4.155a.81.81 0 0 0 .139.067c.93.402 6.297 2.423 13.9-1.34 4.787 6.3 9.65 8.138 14.035 8.29.345.01.69.02 1.033.01 3.964-.048 8.262-1.32 13.117-5.314.058-.038.124-.096.182-.144.153-.124.393-.048.43.144.402 2.613.105 5.562-.842 8.607-2.776 9.067-11.23 18.947-23.6 23.217-.058.03-.105.048-.163.058-.325.115-.66.22-.996.326a31.65 31.65 0 0 1-1.915.546c1.455 2.097 5.342 2.575 8.052 2.633 1.61.038 2.796-.077 2.796-.077s.335 1.857 1.254 4.155c1.38 3.495 4.098 8.033 8.962 8.607.058.096.105.2.153.297.785 1.475 1.33 3.13 1.675 4.902 1.762 8.952-1.54 20.776-5.495 25.917-1.78 2.317-9.986 9.47-15.836 15.28-3.112 3.092-5.563 5.802-6.032 7.22-1.35 4.07 3.083 7.736 6.788 7.9 5.505.24 7.42-1.915 12.207-5.266 1.972-1.39 11.633-12.79 19.637-20.815 4.145-4.165 7.84-7.42 9.804-7.908 0 0 2.097 2.805 7.62 5.88 4.978 2.748 12.724 5.725 24.213 7.047 23.466 2.71 65.392-17.904 75.234-23.936.335-.2.622-.383.88-.555 20.584 10.848 46.35 5.744 58.718 10.206 7.908 2.863 12.485 10.704 15.424 16.468 1.666 3.255 2.805 5.85 3.724 6.51 2.557 1.838 6.54-.393 7.66-1.915 1.12-1.513 1.6-5.342.64-10.206-2.24-.746-6.175-5.41-9.708-10.148-4.012-5.362-7.525-10.838-7.525-10.838s-9.096-2.872-12.13-9.02c-2.94-5.955-11-22.26-17.875-29.355a35.23 35.23 0 0 0-1.58-1.532c-7.592-7.008-22.5-16.238-23.313-16.984-.163-.153-.287-.622-.383-1.293" stroke-width="2.469"/><g class="K"><path d="M15.472 36.713s7.267-2.336 14.38-.852 11.47 7.86 12.954 8.07 9.067-3.14 14.228.21c2.795 1.81 3.6 4.816 3.56 7.085-.02.91-.172 1.704-.383 2.26" stroke-width="1.436"/><path d="M33.7 87.033h.9c.268 0 1.398-.114 3.092-.555 2.595-.7 6.21-2.456 9.56-6.9" class="L"/></g><g class="G"><path d="M166.294 45.808a7.52 7.52 0 0 1-1.139-5.103c.478-3.236 4.222-4.117 6.137-3.274 1.915.833 3.112 3.543 2.24 5.266-1.83 3.6-6.798 3.16-7.238 3.112z"/><path d="M189.33 58.37l.01-.613c.144-7.037 2.776-11.125.584-20.45-.93-3.935-4.24-9.268-9.785-12.446a19.8 19.8 0 0 0-4.299-1.867c-2.068-.622-4.356-.957-6.855-.88-12.274.354-20.584 9.814-20.23 20.345l.038.67c.192 2.863 1.015 5.41 2.308 7.573 3.274 5.486 9.632 8.54 16.764 8.35 6.405-.173 10.32-2.73 12.734-5.438 1.522-1.685 2.44-3.437 3.016-4.7.182-.393.335-.747.45-1.024.852-2.03.536-3.542-.373-4.193-.948-.69-2.547-.43-4.098 1.16-2.355 2.413-5.055 3.887-8.3 3.696-.335-.01-.68-.048-1.034-.105-1.733-.288-3.073-1.283-3.944-2.605-.01-.01-.02-.02-.02-.03"/></g></g><path d="M79.382 26.34c-.07 0 .02-.01-.052-.032-5.07-1.574-5.05-8.675-5.05-8.976v-.1l-.14-.1c.092-.367 2.362-9.267 17.28-11.142.403-.048.712.23.762.623s-.25.753-.643.802c-13.192 1.658-15.866 9.113-16.134 9.987.035.805.404 6.35 4.195 7.524.38.118.587.52.47.9a.72.72 0 0 1-.688.505m11.83 33.382a.72.72 0 0 1-.67-.977c2.47-6.38 2.72-10.742 2.723-10.8.018-.384.336-.257.716-.257h.035c.396 0 .702-.072.684.323-.01.204-.257 4.84-2.818 11.455-.1.285-.382.246-.67.246"/><path d="M120.088 60.573c-.1 0-.2-.02-.295-.064a.72.72 0 0 1-.36-.95c1.756-3.906.833-6.772.824-6.8a.72.72 0 0 1 .45-.91c.37-.12.78.07.9.445.047.137 1.13 3.4-.873 7.854-.12.267-.38.424-.654.424M30.808 36.447a.48.48 0 0 1-.476-.433c-.54-5.634 2.634-23.25 17.172-27.13a.48.48 0 0 1 .586.339.48.48 0 0 1-.339.586c-14.07 3.756-16.915 21.444-16.465 26.114a.48.48 0 0 1-.431.523c-.016.001-.03.002-.047.002"/><path d="M55.756 107.625c-.212.53-1.805 13.057-8.917 19.108s-23.567 13.588-27.813 14.013-6.476-1.805-9.448 2.123 1 9.212 3.503 10.297c3.185 1.38 7.006 1.592 11.253.32.168-.05 36.306-18.47 54.353-21.232 5.732-16.242 11.253-21.125 11.253-21.125" class="C"/><path d="M18.88 155.284c-2.193 0-4.276-.414-6.18-1.238-1.813-.786-4.138-3.308-4.9-6.17-.543-2.067-.196-4 1.003-5.585 2.363-3.122 4.525-2.872 6.8-2.6 1.015.118 2.065.24 3.305.113 3.843-.385 20.104-7.678 27.288-13.8 3.98-3.387 6.825-9.403 8.453-17.878.108-.56.14-.714.196-.858a.96.96 0 0 1 1.245-.531.96.96 0 0 1 .55 1.196c-.024.093-.06.283-.1.554-1.713 8.915-4.772 15.3-9.094 18.976-7.143 6.077-23.767 13.78-28.338 14.236-1.447.144-2.652.007-3.714-.116-2.175-.25-3.364-.386-5.066 1.864-.845 1.117-1.074 2.442-.68 3.943.63 2.394 2.6 4.383 3.8 4.897 3.068 1.33 6.707 1.433 10.53.3l.428-.212C35.45 146.9 62.55 133.97 77.974 131.4c5.68-15.864 11.1-20.784 11.33-20.987.394-.35 1-.314 1.35.083s.313 1-.083 1.35c-.05.046-5.432 5-10.983 20.728l-.192.54-.567.087c-15.476 2.367-44.908 16.588-53.56 20.9a11.19 11.19 0 0 1-.661.312c-1.96.588-3.885.88-5.73.882M45.5 100.432c-.56 0-.9-.054-.943-.06a.72.72 0 0 1-.591-.827.72.72 0 0 1 .824-.591c.034.006 2.67.394 5.568-1.416.337-.2.78-.108 1 .228a.72.72 0 0 1-.228.989c-2.296 1.435-4.44 1.676-5.62 1.676"/><path d="M24.892 40.372c-1.65-.36-.986 2.795-1.558 2.632-.45-.128-1.106-2.476-1.05-4.063.576-.413 6.35-4.142 11.944 2.56-.726 2.51-3.774 4.05-4.645 3.474-.612-.404 1.624-3.46-.09-3.35-1.707.12-.613 3.37-1.71 3.415-1.522.064-2.957-.525-3.207-.974-.256-.462 1.825-3.362.317-3.693" fill="#29231b"/><path d="M34.227 41.502c-5.594-6.703-11.368-2.974-11.944-2.56-.001-.448.07-.836.213-1.094.65-1.198 3.68-2.644 6.9-1.573 3.227 1.08 5.228 3.8 4.82 5.228" fill="#3b3227"/><path d="M22.283 38.94c-.001-.448.07-.836.213-1.094.65-1.198 3.68-2.643 6.9-1.573 3.227 1.08 5.228 3.802 4.82 5.23-.726 2.51-3.774 4.05-4.645 3.474-.612-.404 1.624-3.46-.09-3.35-1.707.12-.613 3.37-1.71 3.415-1.522.064-2.957-.525-3.207-.975-.256-.46 1.825-3.362.317-3.693-1.65-.36-.986 2.795-1.558 2.632-.45-.13-1.106-2.476-1.05-4.063z" class="D E F M"/><use xlink:href="#D"/><use xlink:href="#D" x="-20.096" y="-3.829"/><use xlink:href="#D" x="9.584"/><use xlink:href="#E"/><use xlink:href="#D" x="-13.394" y="-5.744"/><use xlink:href="#E" x="9.573" y="1.915"/><use xlink:href="#D" x="-17.223" y="-9.574"/><path d="M27.842 31.024c-1.56 3.63-11.853 4.68-14.045 2.21h-.153c.086-5.644 3.38-7.754 7.42-7.754 3.41 0 6.28 2.298 7.152 5.43z" fill="#fff"/><path d="M13.796 33.235c2.193 2.47 12.485 1.418 14.045-2.2l.374-.363a6.68 6.68 0 0 1 .268 1.867 7.09 7.09 0 0 1-.708 3.078c-6.376-.727-12.303 1.137-12.303 1.137s-.5.052-.7.157c-.948-1.245-1.886-2.8-1.886-4.497v.83zm41.254 5.153a7.9 7.9 0 0 1-1.388 4.471c-4.624-.842-9.67 1.245-10.857 1.072-.546-.077-1.484-.986-2.796-2.183a7.95 7.95 0 0 1-.737-2.853l.335-.03c3.15 2.987 13.883 3.514 14.964-2.556l.182-.048a7.75 7.75 0 0 1 .297 2.125" fill="#d1d3d4"/><path d="M39.254 38.388c0-4.366 3.533-7.9 7.9-7.9 3.62 0 6.674 2.442 7.602 5.773l-.182.048c-1.082 6.07-11.815 5.544-14.965 2.556l-.335.03c-.01-.172-.02-.335-.02-.507" fill="#fff"/><path d="M78.026 131.417c-16.35-2.004-65 27.986-64.426 10.053 0 0-1.833-.278-3.192 1.516-2.716 3.59.823 8.383 3.112 9.374 2.9 1.26 6.527 1.404 10.407.24.153-.046 37.57-18.662 54.06-21.184" class="B"/><path d="M9.772 145.065s.268-.557.612-.502c.352.054.814-.125 1.248.048s.834.27 1.1.5c.13.1.23.136.3.2s.1.077.1.077-.05-.043-.133-.088a2.16 2.16 0 0 0-.355-.167 3.59 3.59 0 0 0-1.121-.202c-.4-.01-.816.043-1.1.102-.304.06-.464.122-.464.122-.322.125-.684-.035-.8-.357s.035-.125.356-.25c.075-.03.152.516.228.516zm.692 4.613s.236-.127.564-.244a5.88 5.88 0 0 1 1.252-.312c.464-.057.93-.04 1.26.028a2.7 2.7 0 0 1 .4.107l.143.05-.15.002c-.094-.003-.23.008-.387.032-.316.047-.715.175-1.078.365a5.08 5.08 0 0 0-.923.625c-.237.2-.348.33-.348.33-.222.264-.617.298-.88.076s-.298-.617-.076-.88c.052-.06.113-.1.18-.147zm173.56 24.975s.135-.232.353-.503a5.93 5.93 0 0 1 .905-.92c.365-.292.77-.52 1.1-.633.16-.058.292-.096.4-.113l.147-.032-.127.08a2.23 2.23 0 0 0-.313.229 3.58 3.58 0 0 0-.73.874c-.2.352-.367.73-.46 1.015-.098.294-.124.464-.124.464-.052.34-.37.576-.712.525s-.576-.37-.525-.712a.62.62 0 0 1 .077-.219zm4.722 1.767s-.025-.267-.004-.615a5.91 5.91 0 0 1 .203-1.274c.125-.45.327-.87.52-1.148a2.43 2.43 0 0 1 .25-.317l.1-.1-.057.14a2.18 2.18 0 0 0-.122.37c-.08.3-.12.727-.087 1.135s.125.808.213 1.094a3.14 3.14 0 0 0 .169.45c.156.308.032.684-.276.84s-.684.032-.84-.276a.62.62 0 0 1-.065-.223zm68.235-27.63s-.177-.2-.364-.495a5.91 5.91 0 0 1-.585-1.15c-.16-.44-.247-.896-.255-1.234-.005-.17.002-.307.017-.404l.016-.15.036.146c.018.093.06.222.118.37.117.297.33.658.598.97s.576.58.816.76c.247.186.4.265.4.265.307.158.43.534.27.842s-.534.43-.842.27c-.072-.037-.133-.085-.183-.142zm3.416-3.07s-.228-.142-.492-.368a5.94 5.94 0 0 1-.892-.931 3.99 3.99 0 0 1-.601-1.107 2.42 2.42 0 0 1-.101-.392l-.028-.148.077.13c.044.083.12.195.22.32a3.62 3.62 0 0 0 .853.755c.346.22.72.388 1 .5a3.16 3.16 0 0 0 .46.138c.34.06.565.387.503.727s-.387.565-.727.503a.61.61 0 0 1-.217-.083z"/><use xlink:href="#F"/><path d="M13.425 32.24v.163c0 1.685.673 3.236 1.62 4.48l.37-.173s5.954-1.895 12.33-1.168c.45-.957.722-2.02.722-3.14 0-.69-.09-1.36-.26-1.99-.87-3.13-3.85-5.43-7.257-5.43-4.04 0-7.525 3.236-7.525 7.257z" class="D E F J L"/><use xlink:href="#F" x="25.612" y="6.656"/><path d="M39.273 38.895a7.95 7.95 0 0 0 .737 2.853c1.312 1.197 2.25 2.106 2.796 2.183 1.187.172 6.233-1.915 10.857-1.072a7.9 7.9 0 0 0 1.388-4.471 7.75 7.75 0 0 0-.297-2.125c-.93-3.332-3.983-5.773-7.602-5.773-4.366 0-7.9 3.533-7.9 7.9 0 .172.01.335.02.507z" class="D E F J M"/><defs ><path id="B" d="M50.264 51.313s-6.76 3.36-14.792 2.46c-4.136-.46-8.607-2.05-12.676-5.812l-.354.03.057.852c4.787 6.3 9.65 8.138 14.036 8.29.345.01.69.02 1.034.01 3.964-.048 8.262-1.322 13.117-5.314z"/><path id="C" d="M22.442 47.99c-3.38.287-6.348-.105-8.598-.622-2.23-.517-3.763-1.16-4.3-1.407l-1.09 4.155a1.14 1.14 0 0 0 .144.067c.93.402 6.3 2.422 13.902-1.34z"/><path id="D" d="M33.2 50.912c-.1 0-.183.08-.183.182 0 .202.366.202.366 0 0-.1-.08-.182-.182-.182m0 .957c-.427 0-.775-.348-.775-.775s.348-.774.775-.774.774.347.774.774-.347.775-.774.775"/><path id="E" d="M37.997 45.168c-.1 0-.183.08-.183.182 0 .202.365.202.365 0 0-.1-.08-.182-.182-.182m0 .957c-.427 0-.775-.348-.775-.775s.348-.774.775-.774.774.347.774.774-.347.775-.774.775"/><path id="F" d="M21.598 30.354a1.26 1.26 0 0 0-1.257 1.257 1.26 1.26 0 0 0 1.257 1.257 1.26 1.26 0 0 0 1.257-1.257 1.26 1.26 0 0 0-1.257-1.257"/></defs></svg>
