<svg xmlns="http://www.w3.org/2000/svg" viewBox="0 0 512 512"><path d="M94.04 206.163L72.76 174.88C29.955 177.657-2.612 214.742.165 257.548c1.345 20.736 10.685 39.707 26.298 53.42 14.32 12.574 32.34 19.345 51.224 19.345 1.707 0 3.425-.055 5.145-.167l11.21-32.35v-91.632z" fill="#965500"/><path d="M80.804 298.865c-12.38.806-24.334-3.263-33.655-11.45s-14.9-19.513-15.702-31.894c-1.658-25.557 17.786-47.7 43.344-49.357l6.013 92.7z" fill="#d37b93"/><path d="M417.96 206.163l21.28-31.28c42.806 2.776 75.373 39.86 72.596 82.667-1.346 20.736-10.685 39.708-26.3 53.42-14.32 12.573-32.34 19.344-51.224 19.344-1.707 0-3.425-.055-5.144-.166l-11.21-32.35v-91.633" fill="#703f00"/><path d="M431.196 298.865c12.38.806 24.334-3.263 33.655-11.45s14.9-19.513 15.702-31.894c1.658-25.557-17.786-47.7-43.344-49.358l-6.013 92.702" fill="#9d5b6e"/><path d="M173.716 429.55C99.7 396.915 51.89 323.576 51.89 242.7 51.89 130.163 143.453 38.6 256 38.6s204.108 91.562 204.108 204.11c0 80.863-47.817 154.2-121.82 186.838l-164.573.002" fill="#965500"/><path d="M256 473.4c-57.766 0-104.762-46.996-104.762-104.763 0-10.026 1.378-19.793 4.113-29.204-36.004-13.075-61.31-47.785-61.31-87.38 0-51.233 41.682-92.915 92.915-92.915 26.865 0 51.7 11.346 69.044 30.666 17.345-19.32 42.18-30.666 69.044-30.666 51.233 0 92.914 41.682 92.914 92.915 0 39.594-25.303 74.305-61.31 87.38 2.734 9.4 4.114 19.178 4.114 29.204C360.763 426.403 313.766 473.4 256 473.4" fill="#efc589"/><path d="M206.87 378.547c0-9.058 7.26-16.393 16.183-16.393 8.934 0 16.194 7.335 16.194 16.393s-7.26 16.4-16.194 16.4c-8.922-.001-16.183-7.343-16.183-16.4zm-33.9-124.75c0-11.513 9.23-20.836 20.57-20.836 11.355 0 20.582 9.324 20.582 20.836s-9.227 20.843-20.582 20.843c-11.342 0-20.57-9.332-20.57-20.843zm166.04 0c0-11.597-9.288-20.998-20.724-20.998-11.45 0-20.738 9.4-20.738 20.998s9.288 20.998 20.738 20.998c11.436 0 20.724-9.4 20.724-20.998" fill="#333"/><path d="M484.49 311.87l-.034.03.034-.03m.164-.14l-.06.05.06-.05m.16-.138l-.068.057.068-.057m.168-.144l-.08.07.08-.07m.164-.143l-.088.076.088-.076m.173-.15l-.102.09.102-.09m.215-.188l-.16.14.16-.14m26.328-53.892l-.001.023.001-.023m.014-.232c0 .007-.001.013-.001.02 0-.004 0-.014.001-.02m.012-.23" fill="#bdbdbf"/><path d="M256.522 38.606v150.62c17.32-18.97 41.927-30.09 68.522-30.09 51.233 0 92.914 41.682 92.914 92.915 0 39.594-25.303 74.305-61.31 87.38 2.734 9.4 4.114 19.178 4.114 29.204a104.17 104.17 0 0 1-18.21 58.966c43.75-20.502 77.936-55.397 97.905-97.545 5.343-11.26 9.662-23.036 12.877-35.194 4.438-16.778 6.773-34.28 6.773-52.153a205.03 205.03 0 0 0-2.22-30.146c-1.865-12.54-4.875-24.718-8.92-36.413-27.62-79.81-103.422-137.32-192.446-137.545" fill="#703f00"/><path d="M288.826 395.068c-9.01 0-16.316-7.397-16.316-16.52s7.308-16.522 16.316-16.522c8.998 0 16.306 7.397 16.306 16.522s-7.31 16.52-16.306 16.52m29.47-120.274c-11.45 0-20.738-9.4-20.738-20.998s9.288-20.998 20.738-20.998c11.436 0 20.724 9.4 20.724 20.998s-9.288 20.998-20.724 20.998m6.748-115.657c-26.596 0-51.203 11.12-68.522 30.09V473.39c35.698-.176 67.23-18.294 86.022-45.785 11.495-16.81 18.22-37.12 18.22-58.97 0-10.026-1.378-19.793-4.114-29.204 36.006-13.075 61.3-47.784 61.3-87.38 0-51.234-41.682-92.916-92.915-92.916" fill="#b19267"/><path d="M288.826 362.026c-9.01 0-16.316 7.397-16.316 16.522s7.308 16.52 16.316 16.52c8.998 0 16.306-7.397 16.306-16.52s-7.31-16.522-16.306-16.522" fill="#333"/></svg>