<?xml version="1.0" encoding="utf-8"?>
<!-- Generator: Adobe Illustrator 19.1.0, SVG Export Plug-In . SVG Version: 6.00 Build 0)  -->
<svg version="1.1"
	 id="svg3346" xmlns:rdf="http://www.w3.org/1999/02/22-rdf-syntax-ns#" xmlns:dc="http://purl.org/dc/elements/1.1/" xmlns:inkscape="http://www.inkscape.org/namespaces/inkscape" xmlns:sodipodi="http://sodipodi.sourceforge.net/DTD/sodipodi-0.dtd" xmlns:svg="http://www.w3.org/2000/svg" xmlns:cc="http://creativecommons.org/ns#"
	 xmlns="http://www.w3.org/2000/svg" xmlns:xlink="http://www.w3.org/1999/xlink" x="0px" y="0px" viewBox="-9 132.8 576 576"
	 style="enable-background:new -9 132.8 576 576;" xml:space="preserve">
<style type="text/css">
	.st0{fill:#1A1A1A;}
	.st1{fill:#FBECD6;}
</style>
<g id="layer1" transform="translate(810.7444,-103.27822)">
	<ellipse id="path3362" class="st0" cx="-531.7" cy="512.1" rx="134.9" ry="130.3"/>
	<path id="path4180" class="st0" d="M-595.7,806.1c-9.6-2.1-26.1-7-36.8-10.8c-19.6-7-60.6-27.8-69.8-35.6c-5-4.2-5-4.4-0.9-17.8
		c14.5-46.8,50.9-86.7,97.6-106.9c28.3-12.2,48.3-15.9,80-14.5c60.8,2.6,113.1,33.4,145.1,85.7c8.7,14.2,19.8,43,19.6,50.8
		c-0.1,3.3-4.8,7.4-15.7,13.8c-35.4,20.7-76.4,34.8-116.2,39.8C-517.5,813.9-571.8,811.5-595.7,806.1L-595.7,806.1z"/>
	<path id="rect4182" class="st0" d="M-710.2,590.1l212.4,179.6c6.2,5.3,7,14.6,1.7,20.8l0,0c-5.3,6.2-14.7,6.9-20.9,1.7
		l-212.4-179.6c-6.2-5.3-7-14.6-1.7-20.8l0,0C-725.8,585.6-716.4,584.8-710.2,590.1z"/>
	<path id="rect4207" class="st1" d="M-594,465.4h124.6c20.2,0,36.6,16.4,36.6,36.6v24.5c0,20.2-16.4,36.6-36.6,36.6H-594
		c-20.2,0-36.6-16.4-36.6-36.6V502C-630.7,481.8-614.3,465.4-594,465.4z"/>
	<ellipse id="ellipse4213" class="st0" cx="-569.8" cy="515.5" rx="15.1" ry="18.6"/>
	<ellipse id="ellipse4247" class="st0" cx="-495.3" cy="515.5" rx="15.1" ry="18.6"/>
</g>
</svg>
