<?xml version="1.0" standalone="no"?>
<!DOCTYPE svg PUBLIC "-//W3C//DTD SVG 20010904//EN"
 "http://www.w3.org/TR/2001/REC-SVG-20010904/DTD/svg10.dtd">
<svg version="1.0" xmlns="http://www.w3.org/2000/svg"
 width="700.000000pt" height="700.000000pt" viewBox="0 0 700.000000 700.000000"
 preserveAspectRatio="xMidYMid meet">
<metadata>
Created by potrace 1.11, written by Peter Selinger 2001-2013
</metadata>
<g transform="translate(0.000000,700.000000) scale(0.100000,-0.100000)"
fill="#000000" stroke="none">
<path d="M3315 6464 c-16 -2 -79 -9 -140 -15 -226 -23 -490 -90 -723 -184
-705 -287 -1267 -856 -1547 -1565 -20 -52 -40 -98 -44 -102 -3 -4 -47 -19 -96
-33 -288 -84 -525 -286 -657 -561 -162 -340 -134 -732 76 -1048 60 -90 201
-231 286 -287 130 -86 283 -145 433 -169 l78 -13 36 -71 c255 -511 706 -961
1224 -1221 l72 -37 -22 34 c-46 69 -141 276 -166 363 -45 157 -58 270 -52 455
3 101 12 194 23 240 26 113 28 106 -56 143 -266 118 -488 332 -623 602 -88
176 -129 356 -129 560 0 342 126 647 367 891 246 249 552 376 900 376 337 -1
633 -116 865 -338 l80 -77 73 70 c238 226 534 343 868 343 341 0 645 -122 883
-354 255 -248 386 -560 386 -917 0 -482 -270 -914 -707 -1133 -51 -25 -96 -46
-102 -46 -20 0 -20 -18 0 -111 28 -133 36 -373 15 -504 -28 -184 -86 -352
-175 -506 -27 -46 -47 -86 -45 -88 6 -7 249 131 352 200 392 262 715 623 932
1042 31 60 51 87 63 87 29 0 162 29 225 49 202 65 412 222 538 401 285 407
247 963 -92 1329 -143 155 -289 239 -552 319 -18 6 -33 33 -73 132 -132 330
-329 633 -581 895 -227 237 -461 409 -758 559 -394 199 -811 298 -1240 294
-91 0 -178 -3 -195 -4z m-2588 -2436 c-6 -35 -11 -187 -11 -338 -1 -291 8
-389 58 -612 15 -64 19 -98 12 -98 -23 0 -123 75 -184 138 -44 45 -75 89 -102
146 -55 115 -64 156 -64 286 0 99 4 126 27 193 44 126 111 221 220 308 27 22
50 39 51 39 2 0 -2 -28 -7 -62z"/>
<path d="M4278 3806 c-122 -34 -206 -145 -208 -273 -1 -211 221 -352 406 -257
65 33 124 101 143 164 16 53 14 138 -5 192 -44 130 -202 212 -336 174z"/>
<path d="M2522 3784 c-99 -49 -154 -140 -154 -254 0 -78 22 -136 71 -192 101
-116 302 -119 408 -7 107 113 103 299 -9 406 -80 77 -216 97 -316 47z"/>
<path d="M2976 2035 c-21 -7 -54 -28 -73 -47 -115 -109 -90 -293 50 -363 84
-41 170 -30 239 33 104 94 104 240 0 334 -62 56 -138 71 -216 43z"/>
<path d="M3865 2037 c-156 -72 -188 -273 -61 -384 46 -41 96 -56 166 -51 112
8 191 89 198 204 6 96 -26 164 -101 211 -50 32 -154 42 -202 20z"/>
</g>
</svg>
